<svg id="Layer_1" data-name="Layer 1" xmlns="http://www.w3.org/2000/svg" viewBox="0 0 971.77 1000"><defs><style>.cls-1,.cls-3{fill-rule:evenodd;}.cls-2{fill:#ea580c;}.cls-3{fill:#fb923c;}</style></defs><path class="cls-1" d="M442.06,569.09c3.25.22,2.28,1,1.76,1.73s-.6,1.5,4.19,1.68a38.61,38.61,0,0,1,4.51.38l4.36.52c2.87.35,5.57,1,8.25,1.47s5.22,1.2,7.71,1.81l3.68.94,1.26.32,1.16.54,1.75.83c1.14.58,2.31,1,3.39,1.71l1.52.9.61.41c.1,0,.2.16.31.17h1.13l3.2-.14,11.84-.54c7.38-.46,13.74-1.1,19.11-1.79a61.64,61.64,0,0,0,13-3.18,25.26,25.26,0,0,0,6.16-.18c2.13-.35,4.29-.84,6.33-1.28,4.07-.88,7.63-1.56,9.43-.49,7.13-1.31,13.25-2.29,18.66-3.8l7.81-2c2.48-.75,4.87-1.54,7.26-2.32s4.77-1.53,7.18-2.4l7.38-2.82c4.93-1.82,11-4.59,18.57-5.29,4.39.3,2.41,1.75,3.42,3l-1.94.15a41.78,41.78,0,0,0-5,.75c-4.14.85-9.3,3-14.53,5.08l-7.68,3L591,570.6l-4.82,1.68c-1.16.41-1.83.63-1.83.63l13.18-3c-2.65,1.47-7.43,3.07-11.68,4.66s-8.08,2.84-8.68,4.29c2.32-1,5.17-2.06,8.42-3.17s6.78-2.56,10.63-3.92l2.92-1,3-1.16,6.12-2.37a80,80,0,0,1,12.21-4,37.77,37.77,0,0,1,12.25-.48l3,.42c1,.16,2,.41,3,.6s1.94.38,2.89.62l2.79.74c7.33,1.94,13.54,4,17.8,4.9-7.19-3.72-16.76-6.68-25.75-8.82a49.62,49.62,0,0,0-6.48-2.12,19.27,19.27,0,0,1-2.54-.84c-.6-.22-.92-.5-.77-.84a44.9,44.9,0,0,1,5.31-.44c1.73,0,3.45.17,5.17.28s3.33.48,5,.75,3.22.71,4.82,1.08,3.15.82,4.68,1.31,3.07.95,4.58,1.48c3,1.12,6,2.17,8.86,3.45s5.82,2.48,8.68,3.87l4.34,2,.58.27a5,5,0,0,1,.76.4l1.1.66,2.09,1.24c5.58,3.33,11.3,6.83,17.28,10.72a66.23,66.23,0,0,1,8.9,6.85,27.74,27.74,0,0,1,3.17,3.35,4.73,4.73,0,0,1,1.22,2.24c-3.88-3.09-2,.13-5.28-1.95,4.18,3,4.2,2.59,4.53,2.59.16,0,.38.17,1.21,1,.42.4.95,1.07,1.69,2a20.12,20.12,0,0,1,1.23,1.63,19.66,19.66,0,0,1,1.57,2.51l-.55.47-.55.45a8.51,8.51,0,0,1,4.28,5c.14.57.25,1.16.35,1.77a5.56,5.56,0,0,1-.19,1.85,8.37,8.37,0,0,1-2,3.36,11.21,11.21,0,0,1-1.57,1.49,17,17,0,0,1-1.86,1.4c-.62.45-1.4.94-2,1.29a9.82,9.82,0,0,0-1.24.89c-.78.62-1.56,1.28-2.34,2s-1.56,1.68-2.31,2.63c-1.2.25-2.17.42-2.18-.12,0-.27.24-.7.82-1.38a32.24,32.24,0,0,1,3-2.66,16.62,16.62,0,0,0-6.43,5.62,35.28,35.28,0,0,1-4.26,5.74c2.1-3.43,1.55-4.89,1.91-7.21a41.32,41.32,0,0,1-6.95,7.53c-2.16,1.69-4,3-5.86,4.45.36,1,4.91-.19-.66,6.77-2.57,3-2.2.69-3.14,1.15.38,1-.06,4.66-2.71,10-.84.24-.82-.85-.69-2.16s.47-2.79,0-3.4c-2.3,4-3.76,7.72-6.15,10.38-1.18,3.89-.53,4,.08,3.64s1.49-.94,1.27,1.59c-2.73,5.59-3.18,6.44-3.76,6.16s-1-1.57-3,.21c.17-1.22.38-2.48.61-3.77s.6-2.54.92-3.83c.61-2.6,1.51-5.12,2.31-7.53s1.8-4.59,2.53-6.56,1.56-3.56,2-4.82c0,0-2.31,4.2-4.17,8.57-1,2.16-1.75,4.4-2.42,6-.32.82-.57,1.51-.72,2s-.26.77-.26.77c-.46-.88-2.21,1.86-3.59,3.64-.66.9-1.19,1.55-1.49,1.35s-.33-1.26.27-3.76c-1,2.06-1.82,4.25-2.67,6.48l-.62,1.69-.15.42-.21.67-.42,1.4L659.71,682l-.82,2.86-.2.72c-.09.13,0,.21.15.3l.31.26,1.26,1.07,5.06,4.27,2.65,2.38.48.42a1.23,1.23,0,0,1,.23.22l1,1.27c2.95,3.6,5.72,7.26,8.2,10.83L679,708c.27.4.69,1,.72,1,.22.28.47.6.69.92a7.55,7.55,0,0,1,1.14,2.27c.21.36-.13.48-.26.69.35,0,1,0,1-.3.43-.55.55-1.26,1.43-.83.16.36.31.7.43,1s.14.63.19.9c.24.53-.3.65-.56.84a2.47,2.47,0,0,1-.92.22,2.77,2.77,0,0,1-1.48-.3,9.31,9.31,0,0,1-2-1.46,6,6,0,0,0-1.12,1.08l-.55.69c-.28.24-.64.5-.9.75a14,14,0,0,1-3.93,3.19c-7-1-11-1.15-14.72-1.44-1.85-.14-3.64-.32-5.72-.65s-4.43-.72-7.42-1.41l.7,2.59c-8.49-1.77-9.28,2.23-18.38,1-.65-.5,2.74-1.3,5.53-2-8.08,1.16-7.6-2-15.35-.48l3-1.65c1.52-.84,3.05-1.63,3.05-1.64-6.25.43-15.28,1.93-12.3-.74-5.23,1.86-12.71,2.69-20.54,3.6s-16,1.84-22.61,3.29l.73-2.32c-7,3.41-25.67,2-31.32,5.79l-1.31-.8-13.43,4.12c-6.52.32-4.54-3.29-4.8-2.3l-3.44.4-3.86.41-3.7.39-1.8.19-.89.09c0,.25,0,.56.05.83.36,4.47.66,8.58.89,12.47,0,.47.06,1,.08,1.42a2.05,2.05,0,0,1,0,.55l-.18,1.86c-.12,1.23-.32,2.42-.52,3.55a28.48,28.48,0,0,1-1.83,6,3,3,0,0,1,.63,1.44,7.32,7.32,0,0,1,.07,2.23,11,11,0,0,1-2.15,5.61,9.09,9.09,0,0,1-2.68,2.34,10.5,10.5,0,0,1-3.78,1.07,20,20,0,0,1-8.38-1.21,18.53,18.53,0,0,1-3.22-1.39A20.56,20.56,0,0,1,480.2,760a34,34,0,0,1-2.82-2.46c-.85-.93-1.75-1.85-2.58-2.83a43.62,43.62,0,0,1-4.71-6.32,23.23,23.23,0,0,1-1.85-3.66,12.79,12.79,0,0,1-.66-2,10.24,10.24,0,0,1-.36-2c-.22-1-.81-2.44-1.21-3.71s-.92-2.6-1.27-3.94c-.74-2.66-1.57-5.33-2.17-8.06-1.36-5.44-2.47-11-3.49-16.56-2-11.16-3.52-22.52-4.83-33.59-.31-2.76-.62-5.52-.93-8.25s-.87-5.37-1.3-8l-1.31-7.86c-.55-2.57-1.09-5.12-1.62-7.63s-1-5-1.68-7.39l-1.92-7.06c-.33-1.15-.61-2.31-1-3.42l-1.16-3.27c-.77-2.19-1.54-4.33-2.28-6.43-.35-1.07-.7-2.13-1-3.18s-.7-2-1.06-2.91a55.86,55.86,0,0,0-2.37-5.33,33.35,33.35,0,0,0-5.77-8.21c-.32-.34-1.54-1.54-2.34-2.29l-1.29-1.24-.65-.61c-.14-.23-.05-.55-.08-.82a32.45,32.45,0,0,1,.29-6.58,19,19,0,0,1,.72-2.89c.17-.45.34-.88.5-1.31l.64-1.26a15.74,15.74,0,0,1,3.43-4.16,26,26,0,0,1,6.76-3.78c1.71-.71,2.77-1.19,3.24-1.82A20.92,20.92,0,0,0,430.94,572a17.39,17.39,0,0,0-4.94,4.69,20.44,20.44,0,0,0-2.68,5.68,21.87,21.87,0,0,0-.68,3.35l-.22,1.69-.07,1.69-.12,3.37v.64a2,2,0,0,0,.14.16l.56.61,1.13,1.24,1.14,1.24c.4.43.68.78,1.23,1.32l.36.37.26.27.2.24.41.47a22.62,22.62,0,0,1,1.57,2.08,44.92,44.92,0,0,1,5,10.39l.51,1.43.47,1.57.47,1.56.31,1,.39,1.15,2.05,6.13c.34,1,.71,2,1,3.08l.84,3.19,1.67,6.39c1.05,4.28,1.83,8.7,2.76,13.05s1.44,8.76,2.18,13.13l.53,3.29.35,3.4.72,6.81c.47,4.53,1.07,9.18,1.6,13.77s1.18,9.22,1.9,13.84c1.34,9.23,3,18.48,5.22,27.82.57,2.34,1.13,4.67,1.89,7.05l.53,1.77.26.89c0,.11,0,.08,0,.06v0l0-.09s0,.08,0,.11v0l0,.39c0,.24,0,.53.09.74.18.9.35,1.84.59,2.69a34,34,0,0,0,3.77,8.34,64,64,0,0,0,4.48,6.42,35.17,35.17,0,0,0,13.79,11.38,34.51,34.51,0,0,0,4.59,1.58l2.38.46a13.68,13.68,0,0,0,2.36.28,21.39,21.39,0,0,0,10.88-1.54,20.84,20.84,0,0,0,8.74-7.44,31.37,31.37,0,0,0,4-8.49,68,68,0,0,0,2.57-15.65,8.9,8.9,0,0,0,0-1.64l0-.56,0-.34,0-.69c0-.4,0-1.16-.13-.94h-.16l.76-.07,6.91-.57L553,734l27.43-2.36,13.63-1.2,13.64-.88,13.64-.86c4.55-.28,9.11-.38,13.66-.57,9.1-.34,18.2-.77,27.32-.79l13.66-.17,1.76,0,3.43-.14,3.43-.14a5.5,5.5,0,0,0,1.58-.26l1.49-.37c4-.93,6.57-3.39,9.86-5.56l-.6-5.84a10.2,10.2,0,0,0-.19-1.43l-.4-1.5-.8-3-.21-.74-.34-.74-.68-1.48L693,703l-.34-.74-.17-.36-.11-.2-.46-.81-.93-1.61A137.27,137.27,0,0,0,683,687.43l-2.38-3.2c-.31-.36-.65-.65-1-1l-.69-.67-1.38-1.33-1-.92,0-.05L677,679l2-5.92A100.33,100.33,0,0,1,690,651c1.14-1.67,2.27-3.35,3.55-4.9l.93-1.19.47-.6.55-.7.55-.8,1.61-2.35A51.72,51.72,0,0,1,705.4,632a26.79,26.79,0,0,1,2.23-1.86c.77-.6,1.52-1.22,2.34-1.76s1.62-1.15,2.4-1.64l2.35-1.46c.18-.12.43-.24.66-.37l1.09-.58c1-.52,1.87-1.17,2.81-1.75s1.71-1.33,2.55-2a15.15,15.15,0,0,0,2-2.37,6.68,6.68,0,0,0,.8-1.3,10.22,10.22,0,0,0,.61-1.4l.26-.73.13-.76.05-.39c-.07-.08.14-.1.11-.17v-.19l0-.77,0-1.53a14,14,0,0,0-.2-1.55l-.23-1.55a11.18,11.18,0,0,0-.49-1.52,29.17,29.17,0,0,0-2.88-5.89c-.58-.84-1-1.34-1.41-1.93a20.48,20.48,0,0,0-1.31-1.62L718,595.41,716.68,594c-.9-.94-1.81-1.78-2.73-2.62a129,129,0,0,0-11.21-9c-3.79-2.74-7.63-5.28-11.49-7.77L685.43,571l-2.93-1.76c-.54-.31-.79-.51-1.87-1.1l-1.73-.83a252.47,252.47,0,0,0-25.46-10.91c-1.11-.4-2.2-.81-3.33-1.18l-3.44-1.06c-2.25-.74-4.68-1.29-7.08-1.86a35.2,35.2,0,0,0-3.73-.71c-1.3-.18-2.49-.46-3.87-.55l-4.1-.24c-1.36,0-2.7.1-4.06.17a57,57,0,0,0-15.38,3.53L596.14,559c-4.11,1.41-8.28,2.66-12.41,4s-8.36,2.3-12.54,3.47c-8.43,2.09-17,3.85-25.59,5.4a499.48,499.48,0,0,1-52.26,6.44l-6,.46h-.07l-.08,0-.42-.23-1.7-1c-1.14-.56-2.3-1-3.45-1.57l-1.86-.83a6.46,6.46,0,0,0-1.37-.52l-1.24-.29-6.78-1.59C461.27,570.81,452,569.16,442.06,569.09Zm16,128.12c.74,0,.87-2.43.62-6.11s-.76-8.68-1.41-13.87c-.32-2.6-.64-5.26-1-7.84-.17-1.28-.33-2.55-.49-3.78s-.45-2.4-.66-3.53c-.86-4.5-1.55-8.13-1.87-9.81L456.77,665c0-3.31-.84-8.34-1.45-12.93s-1.29-8.69-.36-10.33c.2,2.61.68,5.68,1.15,9.13s.95,7.27,1.57,11.32c.15,1,.31,2,.47,3.08s.22,2.09.34,3.16c.23,2.12.48,4.29.72,6.49.48,4.4,1.13,8.85,1.69,13.31,2.37,17.86,5.65,35.12,6.54,44.28-2.66-7-4.09-17.2-6-26.35C459.94,702.61,460,699.47,458.06,697.21Z"/><path class="cls-1" d="M528.57,312.22h-.74l-1.47,0h-3c-2,0-4,0-6,0a128.51,128.51,0,0,1-18.2-1.51A64,64,0,0,1,482,305.45a38.3,38.3,0,0,1-7.36-4.68,31.2,31.2,0,0,1-5.69-6.25l-.05-.08-.06-.07c-.95-1.25-1.95-2.49-2.85-3.74l-1.34-1.86L463.47,287a20.44,20.44,0,0,1-2.91-6,3.06,3.06,0,0,1-.15-.81,2.32,2.32,0,0,1,0-.79c.21-.55.81-.71,1.31-.84a15.54,15.54,0,0,1,3.17-.3l7-.5c10.89-.77,20.48-1.3,28.07-1.52-3.1-.92-11.87-.52-21.65.16l-13.95,1a29.14,29.14,0,0,0-3,.15,5.44,5.44,0,0,0-1.42.31,1.45,1.45,0,0,0-1,.88,11.94,11.94,0,0,0,1,4.73,17.5,17.5,0,0,1-1.31-3,6.82,6.82,0,0,1-.4-1.6,2,2,0,0,1,0-.83,1.49,1.49,0,0,1,.5-.61c1.78-1.14,4-.83,6.14-1.27l13.7-1.84L461.74,276a12.44,12.44,0,0,0-2.87.42,3.75,3.75,0,0,0-1.37.62,1.3,1.3,0,0,0-.46,1.38,16.09,16.09,0,0,0,2.16,6.1,75.63,75.63,0,0,0,7.86,11.26v0a35.89,35.89,0,0,0,14.74,12.06A70.42,70.42,0,0,0,498.12,313c9.94,1.91,16.83,2.28,16.59,3.22a34.87,34.87,0,0,1,4.18-.79c1.41-.19,3-.3,4.69-.39l1.29-.07.66,0,.33,0a1.45,1.45,0,0,1,0,.3c0,.83.09,1.67.13,2.56.07,1.76.18,3.64.36,5.78,0,2.48,0,5-.07,7.56s-.35,5.08-.53,7.64c-.22,5.1-1.14,10.16-1.73,15.11-.76,4.93-1.88,9.68-2.58,14.21s-1.18,8.5-1.8,13.42l1.29-5.69c.36-1.78.77-3.66,1.19-5.65.19-1,.41-2,.61-3s.5-2.13.76-3.24c.49-2.21,1-4.51,1.54-6.9s.81-4.91,1.23-7.49c.19-1.29.39-2.59.59-3.92s.37-2.67.46-4c.46-5.47,1-11.19,1.07-17.12,0-1.84.07-3.68.11-5.56s.07-3.88.06-5.83A5.88,5.88,0,0,0,528.57,312.22ZM810.1,499.06a47.67,47.67,0,0,0-5.67-10.58,82.63,82.63,0,0,0-15.2-15.9l-2.54-2.05a5.58,5.58,0,0,0-.48-.37l-.51-.25-1.05-.5-1.22-.59-4.67-2.23c-3.2-1.38-6.37-2.78-9.7-4a103.88,103.88,0,0,0-20.76-5.52c-1.84-.22-3.67-.5-5.54-.63s-3.76-.2-5.64-.17-3.84.08-5.59.32l-2.71.27-1.53.17-1.78.37-19.22,3.92-16.08,3.28.64-1.62c1.18-2.91,2.62-5.62,3.9-8.45.7-1.37,1.48-2.65,2.21-4l1.11-2,.27-.5.3-.51c.14-.28.29-.53.42-.81l.57-1.21c.61-1.31,1.2-2.62,1.93-3.85l1.05-1.9c.37-.61.78-1.21,1.16-1.82a66.67,66.67,0,0,1,11.39-13.22c1-1,2.38-2,3.56-3l.9-.74,1.27-1.18a33.58,33.58,0,0,0,2.36-2.43,27.09,27.09,0,0,0,2.2-3l.56-.87.57-1.08a16.41,16.41,0,0,0,.95-2.26,11.72,11.72,0,0,0,.61-2.38,13.75,13.75,0,0,0,.33-2.39l0-1.22c0-.4-.07-.81-.13-1.21l-.18-1.2c-.09-.38-.22-.77-.33-1.16a16.14,16.14,0,0,0-2-4.42,24.8,24.8,0,0,0-2.48-3.2l-1.14-1.21-1.11-1.07c-.73-.72-1.47-1.34-2.21-1.95a92.57,92.57,0,0,0-8.83-6.41c-5.87-3.81-11.82-7.08-17.78-10.25-3-1.56-6-3.11-9-4.58l-9-4.35c-6-2.85-12-5.7-18.13-8.43-3.08-1.38-6.15-2.72-9.54-4-.75-.31-1.82-.66-2.78-1a10.44,10.44,0,0,0-1.82-.5l-2.41-.39a4.38,4.38,0,0,0-1.12-.09c-.33,0-.85,0-1,0l-1.44.06c-1,.05-1.93.05-2.85.18l-2.78.33-2.14.26c-.4.11-.84.31-1.27.46l-1.16.44-4.36,1.7L617.12,354c-1.47.48-3,.88-4.44,1.34a113.15,113.15,0,0,1-17.87,4l-4.51.56-1.4.16-.92.13-.4.06-1.66.25-.53.1.86-2.53c2-6.09,4.34-12.07,6.72-18l1.88-4.43.94-2.21.47-1.1.08-.21c.16-.24.49-.73.72-1.1a24.76,24.76,0,0,0,1.12-2.25,15.83,15.83,0,0,0,.79-2.32c.18-.79.18-1.62.33-2.41a22.25,22.25,0,0,0-.31-4.69,20.28,20.28,0,0,0-1.18-4.16,13.8,13.8,0,0,0-1.51-2.83l-3.86.64a15.16,15.16,0,0,1,1.95,3.5c.29.77.48,1.54.69,2.32s.25,1.52.36,2.33.07,1.77,0,2.65c-.09.45-.11.89-.18,1.33a11.72,11.72,0,0,1-.35,1.29,14.4,14.4,0,0,1-1.11,2.43c-.25.42-.59.88-.79,1.17s0,0-.13.21l-1.21,2.92-2.56,6.28c-1.57,4.12-3,8-4.36,11.14a25.72,25.72,0,0,1-3.67,7c-.27.73-.53,1.45-.81,2.17-.21.55-.36,1.09-.55,1.64-.37,1.1-.73,2.19-1.08,3.24-.19.55-.37,1.08-.54,1.62l-.27.81c.13.11.53,0,.79,0,1.16-.17,2.3-.31,3.42-.46l6.74-.94,9.16-1a122.73,122.73,0,0,0,16.44-3.9l3.88-1.18c1.27-.42,2.51-1,3.76-1.42l3.72-1.45,1.86-.72,1.12-.44.68-.26a4.76,4.76,0,0,1,.64-.11l4.37-.51,2.11-.11,1.07-.06,1.29,0a17.71,17.71,0,0,1,2.59.52l2.12.68c1.31.52,2.63,1,4,1.53,5.13,2.13,10.27,4.41,15.62,6.88,10.64,5,22.33,10.23,35.49,17.69,3.92,2.61,4.51,3.57,4.38,4.23a.71.71,0,0,1,.15-.07,107.15,107.15,0,0,1,9.35,5.48,52,52,0,0,1,4.42,3.28c.7.61,1.41,1.2,2.1,1.91a19,19,0,0,1,2.08,2.4,10.31,10.31,0,0,1,2.19,6.57,13.19,13.19,0,0,1-.7,3.49,15.62,15.62,0,0,1-1.53,3.12,24.62,24.62,0,0,1-3.81,4.62c-.76.77-1.31,1.21-2,1.78l-1.86,1.62a75.34,75.34,0,0,0-12.33,14.25,67.2,67.2,0,0,0-4.55,8.06l-1,2.1-.37.77-.46.85-.57,1L692,451.32c-1.47,2.79-2.74,5.76-4.14,8.65l-1.53,3.81c-.27.7-.57,1.38-.82,2.1l-.76,2.13-.37,1.07c-.07.31-.48.9.13.62,1.51-.31,3-.62,4.55-.95,12.71-2.71,25.78-5.51,39.52-8.43,1.93-.21,3.86-.57,6-.63,1-.05,2.12-.11,3.19-.15l3.24.11a66.29,66.29,0,0,1,21.38,4.7c1.2.48,2.21.92,3,1.3a7.76,7.76,0,0,1,1.54,1.05c-4.89-1.54-5.72-1.27-6.22-1.05s-.79.52-4.82-.14c10.56,2.39,10,2.15,10.55,2.06.27,0,.81.13,3.09,1,1.16.41,2.68,1.12,4.84,2.06,1.06.5,2.32,1,3.68,1.73s3,1.51,4.82,2.41c0,0,0,.39,0,.78s-.09.84-.09.84c6.35,2,12.15,6.19,17.71,13a45,45,0,0,1,7.25,12.75,33.16,33.16,0,0,1,1.89,8.63,46.36,46.36,0,0,1,0,9.41c-1.25,3.22-3,5.45-3,4.36a6.27,6.27,0,0,1,.3-1.43c.11-.7.37-1.64.55-2.82A36.32,36.32,0,0,0,808,516a48.3,48.3,0,0,0,0-6c0,1.44-.07,2.64-.11,3.82s-.19,2.28-.37,3.36a32.65,32.65,0,0,1-1.36,5.85,19.53,19.53,0,0,1-5.65,8.62,18.92,18.92,0,0,1-8.64,4,14.85,14.85,0,0,1-2.52.35c-.4,0-.92.09-1.27.09l-1.14,0c-1.56,0-3.27,0-5.21-.13,2.36-.11,4.22-.27,5.73-.49a21.15,21.15,0,0,0,2.26-.47,11.05,11.05,0,0,0,1.94-.66,16.4,16.4,0,0,0,5.48-3.83,17.21,17.21,0,0,1-7.31,2.34c-.57.06-1.18.11-1.71.13s-1,0-1.51,0c-1,0-2,0-2.91-.09a98.46,98.46,0,0,1-10-.88c-3-.41-5.57-.89-8-1.38s-4.73-1.18-7-1.68c-1.42.77,7,4.44-12.92,2.5-8.62-1.17-3.83-1.74-5.78-2.44-.7.38-2.93.86-6.66,1.1s-8.86-.28-15.39-1c-1.22-.76.94-1.07,3.64-1.14s5.87-.13,6.61-.7l-7.14-1c-2.3-.27-4.51-.55-6.63-.81-4.25-.6-8.17-1.08-11.76-1.89l-2.83,0-2.08.15a15.06,15.06,0,0,0-2.32.31c-.85.24-.48.48.09.75,1.14.54,3,1.13-2.15,1.7-27-.74-7.92-1.36-17.86-4.05,5.14-.52,10.64-1,16.2-1.33l8.38-.22,8.17.22c2.67.06,5.22.32,7.67.46s4.8.3,6.94.52c4.29.39,7.92.79,10.58.79l-.44,0c-.27,0-.7,0-1.23-.11l-4.38-.53-6.22-.76c-2.32-.2-4.79-.44-7.24-.66-4.91-.51-9.9-.59-13.6-.83h-6.22c.68-.37-.66-.74-2.74-1.15s-4.81-.58-7-.88c-4.39-.57-6.56-1.18,3.74-2.06-38.56-1.21-85.9,1.86-123.61,7.14,2.67-.05,5.83-.26,8.17-.2s3.87.29,3.26.79c-4.81.5-8.25,1.14-10.82,1.34a34,34,0,0,1-5.51.17c-2.44-.2-3-.89-5.08-1.22-14.45,2.8-12.11,5.14-20.39,8.29-7.46.55-13.29,1-18.22,1.56L503,535.58c-3.9.61-7.69,1-12.07,1.62s-9.33,1.29-15.68,1.95l1.89,2.25a60.47,60.47,0,0,0-18.48,4.76c-2.41,1-4.84,1.93-7.86,2.91-1.52.48-3.18,1-5,1.45a6.11,6.11,0,0,0-.75.21l-.8.33c-.46.18-.93.38-1.41.59-1,.36-2,.83-3.13,1.16-.37,0-.22-.22.28-.56s1.25-.9,2.22-1.52c.52-.33,1-.63,1.64-1a15.2,15.2,0,0,1,2.32-1c1.42-.56,2.89-1.15,4.29-1.68-2.08.68-3.81,1.22-5.47,1.68a7.21,7.21,0,0,0-1.53.6c-.35.15-.68.28-1,.43l-1.77.71a12.53,12.53,0,0,1-3.11.89l-2.74.51c-.9.1-1.79.1-2.72.17a26.94,26.94,0,0,1-3,.2c-1.11,0-2.34.11-3.69.11a35,35,0,0,1-4.63-.35l1.82-.09c.53-.09,1.14-.22,1.8-.35a10.33,10.33,0,0,0,2-.46c1.4-.5,2.74-.87,3.72-1.29l1.56-.79-2,.42-2.14.17a17.49,17.49,0,0,1-2.13.15l-2-.11a11.79,11.79,0,0,1-2-.32c-.67-.16-1.33-.2-2-.42a35.75,35.75,0,0,1-3.61-1.31c-1.09-.51-2.05-1-2.84-1.41a11.44,11.44,0,0,1-1.67-1.31c-.7-.7-.44-1,1.08-.85a43,43,0,0,1-7.36-3.64L401,537.66c-1.28-1-2.57-2-3.92-3.08a103,103,0,0,1-7.8-7.74c-.65-.72-1.27-1.42-1.9-2.14l-.9-1.09-.26-.27a9.24,9.24,0,0,1-1-1.31c-.26-.44-.66-1.1-.27-1.6a2.39,2.39,0,0,1,1.56-.48l.85-.09.42,0,1.18-.05c2.11-.13,4.23-.24,6.31-.35,4.22-.17,8.23-.66,12.13-1.09s7.68-.9,11.23-1.4l-1.82,2.4c1.89-.5,4.17-.92,6.75-1.33s5.37-.86,8.41-1.25c6-.79,12.83-1.49,19.53-2.19C464.88,513,477.86,511.32,484,509l2.08.2,2.21.18,1.89-.35,2.14-.4.62-.11c.15-.13.12-.44.19-.67.09-.49.18-1,.28-1.54.36-2,.79-4.4,1.25-6.94.24-1.69.51-3.52.77-5.34,1.05-7.27,2.12-14.54,2.12-14.54,2.65-9.94,4.56-9.63,5.06-9.13.79-3.61,1.66-7.08,2.37-10.51l2.1-10.09q2.07-9.79,4-18.48,1.28-5.6,2.49-10.87c1-4.16,1.93-8.21,2.85-12.13l.35-1.49.19-.74c0-.05,0-.15,0-.17l-.18,0-.35.11c-.92.26-1.82.54-2.73.79l-5.43,1.55c-3.66,1-7.23,2-10.67,2.93a13,13,0,0,1-1.66,1.08c-.38.21-.61.37-.84.52l-.83.51a50.49,50.49,0,0,1-4.57,2.3c-1.82.83-3.92,1.72-6.24,2.65l-3.62,1.44c-.66.24-1.33.5-2,.76-.4.12-.79.27-1.2.42s-.66.51-1,.75l-.48.43c-.16.13-.26.18-.38.27a3.94,3.94,0,0,1-.69.44,1.77,1.77,0,0,1-.53.24l-.07.06h0v0h-.06l-.51,0-1.12-.09-.85-.24a8.2,8.2,0,0,1-1.86-.66,33.2,33.2,0,0,1-7.57-5.05c-1.21-1-2.37-2.11-3.53-3.2l-1.69-1.69a6.46,6.46,0,0,1-1.38-1.66c-.81-1.34-1.62-2.72-2.4-4.09s-1.41-2.55-2-3.81a26.57,26.57,0,0,1-2.08-4.69,3.26,3.26,0,0,1-.07-2.58,3.3,3.3,0,0,1,2.15-1.3c3.39-.43,7.05-.56,10.93-1s7.72-.79,11.6-1.4a60,60,0,0,0,11.46-2.76h0l0,0,9.61-2.54,4.86-1.29c1.64-.44,3.27-.84,4.93-1.17l9.7-2,2.1-.44,1-.22c.07,0,.22,0,.22-.09l0-.28.09-.53c.18-1.42.39-2.86.59-4.29.51-3.42,1-6.89,1.54-10.35s1.26-6.79,1.88-10.19.87-6.89,1.31-10.33c.26-1.71.37-3.46.48-5.19l.33-5.23c.11-1.75.29-3.48.31-5.24l.07-5.25.06-4.14,0-2,0-1c.07-.23-.18-.14-.33-.16h-.5l-3.94,0h-2.1c-.9,0-1.8,0-2.7-.06-1.79-.07-3.59-.13-5.38-.29s-3.6-.28-5.39-.5A77.24,77.24,0,0,1,482.19,311c-6.67-2.85-13-7.31-17.25-13.56l-.13-.19c-1.09-1.41-2.19-2.78-3.24-4.25-.53-.75-1.1-1.49-1.62-2.28l-.9-1.38c-.33-.5-.64-1-.92-1.51a28.12,28.12,0,0,1-2.84-6.17c-.12-.49-.33-1-.4-1.52l-.22-1.53a9.45,9.45,0,0,1,.05-1.51,1.94,1.94,0,0,1,.61-1.38,6.22,6.22,0,0,1,2.58-1.4,16.25,16.25,0,0,1,3-.64c2.32-.23,4.64-.43,7-.65l10.54-.9q10.44-.92,20.56-1.77L518.78,268c13-1.31,25.25-3.69,36.9-5.56,2.93-.43,5.74-1.07,8.52-1.71s5.52-1.26,8.23-1.86c5.35-1.27,10.58-2.28,15.48-3.79s9.68-2.63,14.1-4.09l12.57-4.2c7.78-3,14.63-5.56,20.13-8.3,2.77-1.3,5.25-2.52,7.44-3.62.33-.17.17-.17.17-.17l.86-.59c.64-.4,1.27-.81,1.88-1.16l3.55-1.67c4.45-1.7,7.42-2.19,8.51-3-1.55.09-3.12.17-4.66.31-1.57.3-3.15.55-4.7,1l-2.33.81a14.63,14.63,0,0,0-2.28,1l-1.85,1-.07,0h-.06l-.81.32-12.83,5.06-13.06,4.53-13.26,4c-2.19.71-4.43,1.29-6.68,1.88l-6.71,1.77c-2.25.55-4.49,1.23-6.74,1.71l-6.77,1.45L560.76,256c-2.25.54-4.56.87-6.85,1.24l-6.9,1.08-13.77,2.17c-2.28.41-4.6.69-6.92.94l-7,.8-13.92,1.6-7,.81-7,.58-14,1.15-7,.58-1.75.13-2.45.24-7,.68a11.46,11.46,0,0,0-3.24.54,11.32,11.32,0,0,0-1.32.49l-1.18.59a10.05,10.05,0,0,0-3.57,3.56,10.3,10.3,0,0,0-1,2.44,4,4,0,0,0-.16,1.31l-.09,1.33a18.56,18.56,0,0,0,1.18,5.83c.53,2,1.84,4.05,2.83,6.09.53,1,1.23,2,1.84,3l.64,1,.56.83,2.26,3.11,1.86,2.39.11.16a40.57,40.57,0,0,0,8.89,9.43,50.15,50.15,0,0,0,10.8,6.33,82.36,82.36,0,0,0,22.46,5.8c1.86.24,3.72.46,5.56.57s3.69.29,5.54.35c.92,0,1.84.11,2.74.11l1.29,0h0v0l-.13,4.85c0,1.7-.14,3.35-.27,5-.3,3.33-.48,6.68-.83,10l-1.34,9.9c-.57,3.3-1.31,6.59-1.93,9.89-.35,1.58-.65,3.44-.94,5.24l-.89,5.44-.2,1.36,0,.07-2.15.41-5.25,1c-3.51.57-6.95,1.53-10.43,2.32l-10.4,2.5-.26.06-.41.15a47.78,47.78,0,0,1-8,1.78c-3,.42-6.07.77-9.22,1-1.57.13-3.15.24-4.75.32l-2.65.14c-1.68.11-3.15.33-4.73.48l-4.66.54-1.18.13a2.72,2.72,0,0,0-1.05.22,9.43,9.43,0,0,0-1.65.83,10.14,10.14,0,0,0-2.8,2.42,9.49,9.49,0,0,0-1.84,3.43,6.74,6.74,0,0,0-.39,1.78l-.13.92.08,1a13.53,13.53,0,0,0,.2,2l.55,2.15a11.21,11.21,0,0,0,.32,1.09l.44,1.12.92,2.21c.6,1.49,1.3,2.69,1.95,4l.49,1,.34.59.62,1.16c.41.77.83,1.53,1.27,2.27l.67,1.17.6,1.05a3,3,0,0,0,.7,1l2.28,2.41a74.41,74.41,0,0,0,8.23,7.49,39.59,39.59,0,0,0,5.28,3.48l1.62.79a10.65,10.65,0,0,0,1.9.77q1.25.42,2.52.72l.63.13a3.78,3.78,0,0,0,.48.09l.6.08.61.05.31,0h-.13a17.42,17.42,0,0,0,1.77,0,16.82,16.82,0,0,0,2.54-.42,16,16,0,0,0,1.55-.57,16.53,16.53,0,0,0,2.3-1.23l.5-.32a1.26,1.26,0,0,0,.23-.16l.11-.09c.1-.06.15-.11.19-.11l.33-.11,2.34-.72,9.33-2.91,5.92-1.84v0l-.83,3.77L494.26,448l-2.14,9.59-2.37,9.53L485,486.14l-2.39,9.54-.18.71s0,0,0,0l-17.06,2c-13,1.66-26.07,2.87-39.1,4.24-6.51.7-13,1.05-19.47,1.6-3.24.22-6.52.57-9.72.68l-4.78.17-2.4.07-1.21.06H388a5.45,5.45,0,0,0-.83.06l-9.61.82-1.19.12a2.41,2.41,0,0,0-1.07.2c-.59.24-1.22.46-1.77.74a12.07,12.07,0,0,0-2.92,2.07,11.06,11.06,0,0,0-3.28,6.72,15,15,0,0,0,1.49,7.73,45,45,0,0,0,5.08,8.08l1.2,1.55.86,1,1.69,2c1.16,1.35,2.31,2.64,3.48,3.91s2.3,2.48,3.61,3.84A101.15,101.15,0,0,0,402,557.67c6.35,3.81,13.88,7.06,22.62,7.43a48.49,48.49,0,0,0,23.09-5.35l.64-.3.33-.09,2.36-.66,4.67-1.33,9.37-2.63c6.2-1.88,12.57-3.2,18.87-4.71l9.48-2.23c3.14-.74,6.35-1.25,9.53-1.88l9.55-1.8c3.2-.59,6.37-1.25,9.61-1.66l19.34-2.76,19.42-2.37c6.46-.77,12.92-1.68,19.44-2l19.51-1.47c3.26-.22,6.5-.53,9.75-.68l9.82-.39L639,532c3.27-.13,6.53-.31,9.81-.37l9.82-.11,19.66-.24c6.54,0,13.26-.26,19.35,0,6.28.26,12.61.86,19,1.66,3.14.29,6.48.9,9.72,1.36,1.62.22,3.24.51,4.9.7l5,.42,20,1.71c3.35.28,6.67.61,10,.83l10.12.41,10.12.42a31.52,31.52,0,0,0,6.19-.26,23.38,23.38,0,0,0,7.32-2.23,20.69,20.69,0,0,0,6.56-5.19,24.46,24.46,0,0,0,3.86-6.75,37.87,37.87,0,0,0,2.06-12.63A34.92,34.92,0,0,0,810.1,499.06ZM638.69,359.86c-.37,0-.66.07-1.18.11-1,.11-2,.14-3,.27l-3.11.48a2.82,2.82,0,0,0-1,.32l-1.67.69-3.43,1.4c-2.3.92-4.58,2-6.92,2.65s-4.56,1.53-6.66,2.25c-.52.16-1,.35-1.55.53l-1.51.41-2.81.79a30.24,30.24,0,0,0-7,2.71,169.54,169.54,0,0,0,18.68-5.4c3.55-1.05,7.1-2.7,10.88-4.21l2.58-1.07a2.22,2.22,0,0,1,.82-.18l1.42-.21c1-.13,1.93-.27,2.91-.31l1.47-.07.63-.06a2.67,2.67,0,0,1,.49,0,5.79,5.79,0,0,1,1,.21l1.36.42c.9.27,1.93.73,2.91,1.08,2,.74,4,1.64,6.09,2.49q6.16,2.67,12.54,5.61c8.44,4,17.15,8,25.52,12.37s16.7,9,23.51,14.5a26.91,26.91,0,0,1,4.33,4.24,6.43,6.43,0,0,1,1.08,1.93,4.51,4.51,0,0,1,0,2.19,7,7,0,0,1-.81,2.06,15.9,15.9,0,0,1-1.58,2.19,23.17,23.17,0,0,1-1.94,2c-.79.7-1.58,1.38-2.35,2a71.6,71.6,0,0,0-15,17.54,43.13,43.13,0,0,0-2.4,4.35c-.36.71-.7,1.41-1,2.09s-.57,1.41-.84,2.08-.54,1.35-.79,2c-.15.44-.48,1-.74,1.66l-1.55,3.37c.57-.94,1.13-1.88,1.72-2.84.27-.48.55-1,.84-1.43s.48-.94.72-1.44c.53-1,1-2.08,1.54-3.11s1.17-2,1.75-3.09a83.21,83.21,0,0,1,8.69-11.85,105.13,105.13,0,0,1,11-10.37,17.53,17.53,0,0,0,4.25-5.65,6.16,6.16,0,0,0-.59-6.42,23.88,23.88,0,0,0-4.33-5.41c-1.75-1.79-3.68-3.41-5.37-4.84-2.91-2.43-5.16-4.27-5.16-4.9-.16.48-.66.85-.2,1.75,0,0-5.11-3.11-13.06-7.22s-18.78-9.11-29.64-14c-5.43-2.45-10.9-4.84-16.08-6.83-1.3-.51-2.6-.92-3.83-1.31a7.39,7.39,0,0,0-1.79-.27l-1.88.11c-.62,0-1.25.05-1.86.09s-1.21.17-1.8.24l-1.71.22-.77.11-.69.28c-4.12,1.65-7.63,3.09-10.08,4-2.19.7-3.57,1.12-3.87,1.23l4.29-1.12,9.35-3.21,1.07-.34a4.62,4.62,0,0,1,1.07-.12l2.5-.2c.79-.09,1.58,0,2.32-.05h2a8.75,8.75,0,0,1,1.36.25c.44.19.85.34,1.16.46l1,.39c-.68-.16-1.42-.33-2.19-.53ZM596.3,312.32l10.25-1.75,15.61-3.21c5.19-1.12,10.42-2,15.57-3.36l15.5-3.78c2.58-.64,5.17-1.19,7.73-1.93l7.68-2.17L684,291.76l1-.28c.1,0,.11,0,.08,0l.31-.07,1.55-.39,1.54-.57a20.66,20.66,0,0,0,5.71-3.35,23.71,23.71,0,0,0,6.81-9.53,33.65,33.65,0,0,0,1.86-4.2l.75-2.56a14.72,14.72,0,0,0,.59-2.52l.37-2.49.18-1.23.06-1.18.11-2.35,0-1.35c0-.53,0-1.29-.11-1.91a16.78,16.78,0,0,0-.95-3.83,19.9,19.9,0,0,0-1.51-3.13,26.59,26.59,0,0,0-3.44-4.56,49,49,0,0,0-7.22-6.32c-2.43-1.78-4.86-3.33-7.33-4.8l-2.46-1.44-.42-.23-.46-.13-.92-.28-1.26-.35-3.94-1.14c-1.28-.39-2.65-.72-4-1.07s-2.7-.68-4.12-1l-4.42-.83c-1.36-.2-2.94-.31-4.45-.42,1.69.16,2.89.33,3.68.49s1.14.43,1.25.59c.17.35-.64.59-1.27.88s-1,.65.13,1.09a19.07,19.07,0,0,0,2.82.87c1.43.29,3.25.79,5.67,1.39s4.54,1.2,6.77,1.85l1.67.46a7.86,7.86,0,0,1,2.49,1l1.73,1,1.51.91a60.74,60.74,0,0,1,11.41,8.7,23.68,23.68,0,0,1,4.79,6.74,13.61,13.61,0,0,1,1.19,4.89c.06.87,0,1.46,0,2l-.09,1.73a32.38,32.38,0,0,1-3.7,13.51,22.54,22.54,0,0,1-3.48,5.74,17.79,17.79,0,0,1-5.81,4.58,11.83,11.83,0,0,1-1.71.7,9.67,9.67,0,0,1-1.73.56l-.87.18-.22,0-1.27.35c-1.67.46-3.33.9-5,1.34q-9.85,2.65-19,5.1-9.19,2.1-17.67,4l-8.27,1.88c-2.7.53-5.35,1-8,1.54-10.36,2-19.67,3.94-28.1,5.25l-4.09.7A17.2,17.2,0,0,1,596.3,312.32Zm-70.51,26.39c-.22,5.1-1.14,10.16-1.73,15.11-.76,4.93-1.88,9.68-2.58,14.21s-1.18,8.5-1.8,13.42l1.29-5.69c.36-1.78.77-3.66,1.19-5.65.19-1,.41-2,.61-3s.5-2.13.76-3.24c.49-2.21,1-4.51,1.54-6.9s.81-4.91,1.23-7.49c.19-1.29.39-2.59.59-3.92s.37-2.67.46-4c.46-5.47,1-11.19,1.07-17.12,0-1.84.07-3.68.11-5.56s.07-3.88.06-5.83a5.88,5.88,0,0,0,0-.74h-.74l-1.47,0h-3c-2,0-4,0-6,0a128.51,128.51,0,0,1-18.2-1.51A64,64,0,0,1,482,305.45a38.3,38.3,0,0,1-7.36-4.68,31.2,31.2,0,0,1-5.69-6.25l-.05-.08-.06-.07c-.95-1.25-1.95-2.49-2.85-3.74l-1.34-1.86L463.47,287a20.44,20.44,0,0,1-2.91-6,3.06,3.06,0,0,1-.15-.81,2.32,2.32,0,0,1,0-.79c.21-.55.81-.71,1.31-.84a15.54,15.54,0,0,1,3.17-.3l7-.5c10.89-.77,20.48-1.3,28.07-1.52-3.1-.92-11.87-.52-21.65.16l-13.95,1a29.14,29.14,0,0,0-3,.15,5.44,5.44,0,0,0-1.42.31,1.45,1.45,0,0,0-1,.88,11.94,11.94,0,0,0,1,4.73,17.5,17.5,0,0,1-1.31-3,6.82,6.82,0,0,1-.4-1.6,2,2,0,0,1,0-.83,1.49,1.49,0,0,1,.5-.61c1.78-1.14,4-.83,6.14-1.27l13.7-1.84L461.74,276a12.44,12.44,0,0,0-2.87.42,3.75,3.75,0,0,0-1.37.62,1.3,1.3,0,0,0-.46,1.38,16.09,16.09,0,0,0,2.16,6.1,75.63,75.63,0,0,0,7.86,11.26v0a35.89,35.89,0,0,0,14.74,12.06A70.42,70.42,0,0,0,498.12,313c9.94,1.91,16.83,2.28,16.59,3.22a34.87,34.87,0,0,1,4.18-.79c1.41-.19,3-.3,4.69-.39l1.29-.07.66,0,.33,0a1.45,1.45,0,0,1,0,.3c0,.83.09,1.67.13,2.56.07,1.76.18,3.64.36,5.78,0,2.48,0,5-.07,7.56S526,336.15,525.79,338.71Zm-23.21,131.6s0,.09,0,.13C502.74,470.66,502.74,470.48,502.58,470.31Z"/><path class="cls-1" d="M596.3,312.32l-3.86.64a10.28,10.28,0,0,0-.67-.81,12.59,12.59,0,0,0-1.78-1.73l-1-.74-.83-.51c1.47-.28,3-.54,4.53-.83A17.2,17.2,0,0,1,596.3,312.32Z"/><path class="cls-1" d="M295.15,209.9c4.86.24,3.41,1,2.63,1.75-.38.37-.61.74.17,1a8.47,8.47,0,0,0,2,.4c1,.12,2.34.16,4.12.37,18.49,1.47,34.37,7.82,47.28,14.54,6.43,3.16,12.86,6.64,18.26,10.93a47,47,0,0,1,7.42,7.15,28.44,28.44,0,0,1,5.05,9,21.3,21.3,0,0,1,.87,10,25.73,25.73,0,0,1-3,8.47c-.66,1.16-1.53,2.54-1.8,2.88l-.3.43a2.46,2.46,0,0,0-.08.46l-.15,1.11c-.27,2.23-.52,4.37-.77,6.41a152.66,152.66,0,0,0-1.26,20.29c-1.69,5.48-2.38,12.64-3.07,19-.35,3.16-.69,6.11-1.16,8.55a24.31,24.31,0,0,1-.81,3.22,2,2,0,0,1-.45.86,7.23,7.23,0,0,1-.53.59c-.15.83-.29,1.65-.42,2.45l-.11.61c0,.08-.1.25,0,.26l.27.09,1.09.35,2.19.71,3.16,1,13.16,3.92a209,209,0,0,1,22.51,9.47,45.51,45.51,0,0,1,10.32,6.8,20.78,20.78,0,0,1,7.15,15.65,30.85,30.85,0,0,1-.22,3.58,36.64,36.64,0,0,1-1.54,7.19,56.06,56.06,0,0,1-2.8,7.09c-.26.6-.58,1.16-.87,1.76l-.49.94a4.47,4.47,0,0,1-.66,1.09L420.85,402c-.45.58-1,1.07-1.55,1.62a10.29,10.29,0,0,1-3,1.88,1.45,1.45,0,0,1-1.34,0c-.52-.34-.58-1.07-1.53-1.24a15.61,15.61,0,0,0,2.35-1.74,18.42,18.42,0,0,0,4.78-5.95,51.6,51.6,0,0,0,3.8-10.13c.94-3.8,1.46-8.13.41-12.13a16.25,16.25,0,0,0-2.67-5.48,20.92,20.92,0,0,0-4.11-4.28,48.8,48.8,0,0,0-9.16-5.46c-1.41-.71-2.75-1.27-3.92-1.79s-2.2-1-3.06-1.3L399.12,355s4.58,2.15,8.91,4.63c2.17,1.23,4.24,2.57,5.73,3.63l1.73,1.31a4.29,4.29,0,0,1,.62.52,125.49,125.49,0,0,0-16.44-7.66c-6.28-2.37-11.9-4-13.58-3.23,1.78.37,3.65,1,5.74,1.56s4.35,1.39,6.68,2.25l3.61,1.37,3.7,1.56,3.76,1.78c1.19.68,2.51,1.3,3.66,2.06,4.71,2.72,8.66,7.18,9.09,12.52a26.83,26.83,0,0,1-1,8.83,48.63,48.63,0,0,1-3.47,8.9l-.52,1a2.52,2.52,0,0,1-.46.72c-.43.49-.89,1.19-1.4,1.68a19.55,19.55,0,0,1-3.28,2.85,17.56,17.56,0,0,1-7.91,2.9,18.7,18.7,0,0,1-8.18-.72,12.19,12.19,0,0,1-5.89-4.42l-.65-1a6.57,6.57,0,0,0-.8-1.1l-2-1.51c-1.09-.79-2.16-1.56-3.16-2.43-2-1.65-4-3.23-5.75-4.81l-2.92-2.55a14.09,14.09,0,0,1-1.44-1.36L372.12,383A48.17,48.17,0,0,0,367.7,379c1.22,1.48,2.44,2.9,3.67,4.29s2.46,2.81,3.77,4l3.73,3.61c1.26,1.18,2.6,2.3,3.92,3.46a25.15,25.15,0,0,0,2,1.67l2.17,1.65.59.46a6.34,6.34,0,0,1,.41.6l.75,1.18a23.66,23.66,0,0,0,1.63,2,15.6,15.6,0,0,0,9,4.27,22.72,22.72,0,0,0,10.1.24c3.15-.64,5.38-1.72,5.34-.85a21,21,0,0,1-8.21,3.92,24.28,24.28,0,0,1-9,.55,18.73,18.73,0,0,1-8.9-3.53c-.63-.52-1.27-1-1.86-1.6l-1.61-1.82c-.25-.3-.47-.67-.67-.94l-.33-.47c-.2-.38-.5-.41-.74-.62-1.07-.79-2.27-1.61-3.29-2.46l-3.06-2.58c-1-.85-2-1.74-2.94-2.64l-2.25-2.07a30.55,30.55,0,0,1-4.76-5.13l-.4-.6-.2-.3-.1-.15s0,.14,0,.2l-.13,1.88c-.09,1.24-.18,2.48-.27,3.74q-.26,3.71-.52,7.51l-.12,2.12c-.06,1.12-.11,2.24-.17,3.36-.1,2.25-.2,4.51-.31,6.8-.16,4.58-.33,9.23-.51,14-.07,10.33-.86,24.37-2.11,26.22-.29-7.06-1.46-1.91-1.94-7.58.27,7.54.77,7.08.95,7.44s.19,1.54-.22,12.35l-1.43.43c4.62,8.49,2.16,19.33,5,34.88-1.05,3.77-1.94,5.67-2.47-6.13-.74,13.67,1.87,14.62,1.8,25.47-.83-6.61-2.32-7.54-3.81-10.38,1.86,13.65-.76,20.28-2,26.88.9.95,3.81-5.18,3.59,8.94-.45,6.15-1.42,2.84-1.94,4.26.89.93,2.61,6.13,2.76,15.55-1.27,1.89-1.94-6.14-3.29-7.07.07,7.07.38,13.19-.74,18.38,1.12,12.27,1.86-.94,3.28,6.61-.89,19.33-1.42,5.66-4.18,12.73-1.8-14.62-2.39-33.46-3.44-41l1.05,27.83c-1.5-1.89-2.54,18.85-4,4.24-1.35,27.34.3,60.79,1.5,87.68.52-3.77.89-8.94,1.79-8,.9,13.67-1,12.25-2.1,15.08,1.05,10.36,3.67,8.94,5.61,15.09-.25,2.65-.47,5-.66,7.15-.07,1.08-.24,2.06-.35,3a21.18,21.18,0,0,1-.41,2.66,38.68,38.68,0,0,1-1.18,4.59A28.86,28.86,0,0,1,354,716c-2.21,4.89-5,9.28-11.61,14.88l2.6,1c-.6.52-1.15,1-1.66,1.5l-.89.91a3.64,3.64,0,0,0-.42.46l-.25.53-.79,1.85-.62,1.49c-.75,1.94-1.31,3.58-1.91,5.26a22.06,22.06,0,0,1-2.65,5.13,12.92,12.92,0,0,1-6.27,4.7c-.5-.07.29-.7,1.37-1.78a21.53,21.53,0,0,0,3.35-4.37,11.33,11.33,0,0,1-4.5,4,7.84,7.84,0,0,1-3.54.64,31.48,31.48,0,0,1-3.4-.5,32.66,32.66,0,0,1-5.15-1.27l.34,0h.89a11.87,11.87,0,0,0,2.54-.28l1.25-.34,1-.41a3.67,3.67,0,0,0,.83-.47,4.87,4.87,0,0,1-1,0,7.53,7.53,0,0,1-1.16-.07,11.23,11.23,0,0,1-2.34-.5,12,12,0,0,1-4.18-2.34,8.7,8.7,0,0,1-1.43-1.41,3.48,3.48,0,0,1-.74-1.15c-.23-.63.1-.87,1.16-.63a28.05,28.05,0,0,1-8.1-8.86,64.8,64.8,0,0,1-3.66-6.76l-.44-.91-.17-.39c-.07-.16-.15-.32-.25-.5l-.46-.81-1-1.69c-.33-.57-.68-1.13-1-1.71l-.86-1.81a69.73,69.73,0,0,1-5.13-15.47c-.47-2.68-1-5.31-1.3-7.92-.17-1.3-.4-2.57-.48-3.84-.06-.64-.13-1.26-.19-1.88l-.1-.92a7.28,7.28,0,0,0-.09-.75,4,4,0,0,1,1.13.5l1.14.65q-.13-.48-.27-1a3.26,3.26,0,0,1-.22-.34l-.08-.09s-.05,0,0-.32q.06-.66.15-1.35c.23-1.84.56-3.86,1-6,.81-4.28,1.92-9,3-13.7,1.89-9.43,3.69-18.63,2.94-23.36l1.21-1.7.7-21c1.72-9.76,4.62-6,3.73-6.57.69-5.29,1.34-10.28,1.95-15,.06-.68.35-2,.55-3.16s.43-2.29.64-3.41c.4-2.24.91-4.41,1.19-6.52.64-4.22,1.38-8.18,2-11.91s1.18-7.23,1.84-10.51c-1.24-1.82-1.71-8.29-1.62-16.47-.1-8.19.26-18.1.35-26.83-.42-25.08-1.35-53.46-1.94-82.72s-1-59.36-1.77-87.71c-.39-14.18-.84-27.92-1.52-40.89-.35-6.48-.74-12.77-1.26-18.8s-1.14-11.85-2.12-17.07a54,54,0,0,0-2.2-7.53c-.4-1.23-.8-2.44-1.2-3.64a27.33,27.33,0,0,0-1.3-3.48l-2.88-6.5-1.39-3.08-1.59-2.85q-1.59-2.78-3-5.32c-.5-.84-.95-1.68-1.46-2.46l-1.57-2.24c-2.05-2.9-3.92-5.45-5.6-7.62l-.77-1-.14-2a13.32,13.32,0,0,1,2.19-8.45c.46-.61.94-1.19,1.43-1.73s1-.86,1.54-1.25c.25-.2.51-.39.76-.56l.71-.4,1.37-.72c3.4-1.49,5.22-1.85,6-2.6a25.08,25.08,0,0,0-5.07.56,15,15,0,0,0-2.94.94,14,14,0,0,0-3.11,1.74,14.18,14.18,0,0,0-2.85,2.75,18.34,18.34,0,0,0-2,3.4,26,26,0,0,0-.92,3.34c-.12,1-.2,2-.24,3l-.1,2.23,1.52,2.49,3.69,6c1.18,2,2.57,4,3.55,6.09l3.18,6.25c.51,1.06,1.13,2.06,1.54,3.15l1.31,3.24,2.64,6.46,2,6.6,1,3.29.25.82.14.75.28,1.49c.21.91.33,2.2.5,3.29s.32,2.27.42,3.47c1,9.48,1.54,19.32,2,29.12s.77,19.69,1,29.57c1,39.5,1.22,79.13,1.29,118.75.07,19.84-.08,39.47-.81,59.14s-1.94,39.25-4.62,58.41c-.76,4.76-1.36,9.58-2.38,14.2l-.69,3.51-.35,1.75-.18.92-.1.65-.14.92L294,605.47l-2.25,14.58-2.59,14.51-1.29,7.25L286.36,649l-2.94,14.44-3.3,14.35-1.72,7.47a11.14,11.14,0,0,0-.37,1.88l.05,1.74.05,2c.05,1.34,0,2.67.15,4A100.33,100.33,0,0,0,280.57,711a77.91,77.91,0,0,0,5.4,15.74c.53,1.3,1.26,2.51,1.91,3.75l.94,1.75a1.74,1.74,0,0,1-.12-.23s0-.08,0,0l.1.23.4.92c.52,1.23,1.05,2.46,1.64,3.67s1.17,2.44,1.82,3.66a60.24,60.24,0,0,0,9.86,14.17,36.7,36.7,0,0,0,7.63,6.06,27.61,27.61,0,0,0,10,3.51,20.51,20.51,0,0,0,2.7.24,19.33,19.33,0,0,0,2.84,0,22.68,22.68,0,0,0,5.83-1.21,25.5,25.5,0,0,0,9.37-6.06c4.81-4.95,7.39-10.28,9.55-15.42.14-.32.27-.65.39-1l.31-.83,0,0s-.1.12,0,0l.66-.79,1.31-1.59c.9-1,1.66-2.22,2.49-3.33s1.63-2.26,2.34-3.5a55.06,55.06,0,0,0,7-15.91c.19-.72.41-1.44.56-2.17l.37-2.23.36-2.24c.11-.74.11-1.51.17-2.26.23-3.27.14-5.48.15-8V489.74c0-9.93,0-19.85.16-29.63,0-9.82.47-19.65.82-29.48.14-4.92.46-9.83.74-14.75l.86-14.75.47-6.31h0l3.68,3.54,4.36,3.89c.78.65,1.63,1.3,2.45,1.94l.62.48s0,0,0,0-.11-.1-.05,0l0,.07.31.5a14.41,14.41,0,0,0,1.24,1.64c.45.54.88,1.08,1.37,1.59l1.58,1.46a23.9,23.9,0,0,0,3.51,2.53,29,29,0,0,0,3.87,1.76,24.76,24.76,0,0,0,3.92,1l1.94.32c.64.07,1.25.09,1.87.13l1.86.08,1.83-.09c.61,0,1.22-.06,1.84-.12l1.87-.3a28.83,28.83,0,0,0,13.81-6.5c1-.81,1.8-1.72,2.69-2.59.43-.44.78-.92,1.17-1.38l1.36-1.69a4.9,4.9,0,0,0,.67-1.1l.49-1,.7-1.36c.47-.91.88-1.87,1.32-2.81a51.28,51.28,0,0,0,3.86-12.5,37.68,37.68,0,0,0,.43-7.18,24.79,24.79,0,0,0-1.69-8,27.1,27.1,0,0,0-3.95-6.88,31.2,31.2,0,0,0-5.2-5.2c-.47-.38-1-.79-1.43-1.13l-1.36-.92c-.92-.62-1.84-1.23-2.73-1.72s-1.79-1.05-2.68-1.53l-2.66-1.36c-1.77-.92-3.52-1.66-5.28-2.5L402,345.69l-5.27-2.08-5.46-2c-3.61-1.09-7.19-2.06-10.79-3.09L375,337l-.34-.09-.15,0h.09l.15-1.2,5.56-43.27,1.39-10.81.35-2.71,0-.3s0,0,0-.06l.12-.17.67-1.1c.6-1,1.15-2,1.69-3.08a30.83,30.83,0,0,0,2.46-7.24l.31-2.05c.08-.7.1-1.43.13-2.14a27.24,27.24,0,0,0-.26-4.06,27.79,27.79,0,0,0-2.25-7.59,33.81,33.81,0,0,0-3.85-6.26,49.12,49.12,0,0,0-9.52-9.13,87.49,87.49,0,0,0-10.26-6.5c-3.55-1.92-6.77-3.37-10.16-5.07s-6.87-3.19-10.41-4.7a136.82,136.82,0,0,0-22.23-6.92A118.61,118.61,0,0,0,295.15,209.9Zm16,197c1.5.22,1.67-14.28,1.35-30.13s-1.19-33-1.39-38.22c.62,6.58,1.25,13.18,1.87,19.76.89-9.92-.88-30.64,1.33-35-.66,15.62.23,43.31.73,70.61s.72,54.17-.82,68.08c-.75-11.3-.34-26.86-.88-41C312.32,415.38,312.82,410.7,311.13,406.92Z"/><path class="cls-1" d="M260.39,382.26c2.24.16,3,.68,3,1s-.5.59-.88.92-.59.67-.09,1c.27.18.6.42,1.14.72l1,.51c.35.2.64.42,1,.68a13.85,13.85,0,0,1,3.71,3.88,24.58,24.58,0,0,1,1.95,3.48c.51,1.11.91,2.08,1.29,3l1.11,2.79c.7,1.83,1.28,3.64,1.84,5.3s1,3.3,1.42,4.8c1.69,6,2.56,10.5,4.69,13.34a6.27,6.27,0,0,0-.35,2.85c0,1,.15,2,.25,3,.15,1.86,0,3.29-1.34,3.93-.42,3-.69,5.53-.86,7.85s-.16,4.4-.42,6.45c-.38,4.11-.6,8.19-1.2,13.89-.72,1.56-2,.61-3.29.79a6,6,0,0,0,.07-.77c0-.5,0-1.21.09-2.06.07-1.69.16-4,.26-6.22s.19-4.51.26-6.2a21.61,21.61,0,0,0,0-2.82c.12,0-1.62,5.24-1.62,5.24-.49-1.23-.25-3.2-.41-5s-.5-3.39-1.72-3.82c1.52,4,.67,11.2.14,18.34-.08.89-.11,1.78-.22,2.66s-.25,1.75-.36,2.6c-.23,1.71-.41,3.36-.53,4.91a23.35,23.35,0,0,0,.31,7.64c1.17-3.08,1.16-7.17,2.05-10.82,1.18-1.46,2.25-4,3.53-3.52a49.33,49.33,0,0,1-.29,15.77c-.92,5-2.42,9.86-3.17,15.5-.39,2.79-1.49,6.4-2.84,6.57,0-1.95-1.33-.86-1.62-2.5.11,4.2,1.75-.08-.21,5.43l-1.41-.25a5,5,0,0,1,2.09,4.75,13.42,13.42,0,0,0,.09,5.84c-1.36.67-2.3.87-1.84-2.37-1.82,3.32.47,4.4-.58,7.25-.16-2-1.49-2.77-2.64-4,.57,4.15-2.67,4.9-4.39,6.05.68.59,4.14.18,2.29,3.67-1.12,1.36-1.62.11-2.25.24a4.46,4.46,0,0,1,.53,5.1c-1.36-.14-.91-2.44-2-3.26-.84,1.72-1.31,3.39-3,4-.78,3.43,1.73.74,1.84,3.28-.59.76-.42.24-.83.82a5,5,0,0,1-.7.7.72.72,0,0,1-.9.11,3.16,3.16,0,0,0-2.69-.85c0-.54,0-1.07.11-1.61,0-.28,0-.51.1-.83s.21-.7.25-.93c.26-1,.56-2.07.84-3a21.56,21.56,0,0,0,.87-4.7l-1.18,3.37c-.27.86-.67,1.64-.91,2.27s-.44,1-.44,1c-.25-.31-.67-.28-1.14-.16a3.12,3.12,0,0,0-.94.65,2.17,2.17,0,0,1-.78.5c-.46.2-.87.31-1.15.13a.82.82,0,0,1-.32-.51,2.37,2.37,0,0,1-.07-.45,1.73,1.73,0,0,1,.13-.89,5,5,0,0,1-.51.77l-.36.5q-.36.51-.69,1c-.47.62-.89,1.34-1.3,2a17.54,17.54,0,0,0-1.63,2.6,2,2,0,0,1-.39.58,1.19,1.19,0,0,1-.33.22,1.43,1.43,0,0,1-.71.19,38.69,38.69,0,0,1-4.9.41c.75.63,1.91,1.18,1.58,2-3.45.43-2.72-1.48-3.06-2.7a4.51,4.51,0,0,0-2.73,1.84,8.92,8.92,0,0,1-2.44,2.42c-1.13-1-2-1.69-2.66-2.38l-1.8-1.58a10.71,10.71,0,0,1-1.33-1.85,12.07,12.07,0,0,1-.59-1.24,15,15,0,0,1-.41-1.74l-1.57,2.11a3,3,0,0,0-2.42-2.45,5.61,5.61,0,0,1-1.49-.7,2.51,2.51,0,0,1-.62-.67,2.41,2.41,0,0,1-.13-1.18c.41-.41,1.35.46,2.43.56a2.18,2.18,0,0,1-.6-.48,1,1,0,0,1-.13-.59,7.66,7.66,0,0,1,.29-1.17,2.48,2.48,0,0,0-.54-2.81l1.79.58,1.77.51a19.83,19.83,0,0,1-1.37-3.09c-.17-.93.08-1.52,1.4-1.35A8.42,8.42,0,0,1,219.2,519a22.29,22.29,0,0,1-1.3-3.8,36.85,36.85,0,0,1-.77-4.17c-.12-.69-.27-1.37-.44-2s-.26-1.33-.45-2l2.22.4c-1.29-1.31-1.28-3.7-.91-6a16,16,0,0,0,.15-3.35,3.82,3.82,0,0,0-1-2.69l1-.29s-.47-1.45-.93-2.9-.78-3-.77-3c.89-2.44,4-.67,3.07-1.06.06-.33.11-.67.16-1l.08-.47,0-.29a3,3,0,0,1,.4-1.18c.52-1.16,1.05-2.23,1.59-3.22a21.14,21.14,0,0,1,3.56-4.9c-2.22-2.18-.14-7.77,1.63-12.09,4.11-15.26,13.25-33.38,18.83-48.88.77-1.92,1.23-3.82,1.8-5.64.25-.9.57-1.81.74-2.67s.3-1.69.45-2.51.3-1.53.37-2.44.17-1.78.28-2.66a39.93,39.93,0,0,1,1-5.05,20.41,20.41,0,0,1,1.8-4.67,15.1,15.1,0,0,1,3.12-4,25.61,25.61,0,0,1,3.51-2.52,5.41,5.41,0,0,0,2-1.76l-.62,0a14.57,14.57,0,0,0-1.82.2,14.3,14.3,0,0,0-6.52,2.94,19,19,0,0,0-5.17,6.9,34.35,34.35,0,0,0-2.42,8.16c-.14.72-.22,1.37-.34,2.09q-.17.74-.36,1.5c-.11.51-.24,1-.36,1.55a11.91,11.91,0,0,1-.44,1.7c-.86,2.51-1.6,5.17-2.86,8.16l-1.8,4.58q-1,2.37-2.12,4.87c-1.41,3.33-3,6.83-4.78,10.48s-3.56,7.43-5.51,11.35-4,7.95-6.15,12.09-4.34,8.39-6.67,12.71l-3.51,6.56L208,480a9.7,9.7,0,0,0-.81,1.7l-.42,1.55-1.08,4c-.39,1.32-.69,2.69-1,4.08s-.56,2.77-.85,4.16-.39,2.87-.58,4.31a39.1,39.1,0,0,0-.42,4.39c-.07,1.49-.13,3-.2,4.49s.13,3.06.21,4.6l.13,2.3.35,2.3c.26,1.54.46,3.08.79,4.61a64.92,64.92,0,0,0,2.77,9l1,2.57a10.21,10.21,0,0,0,.76,1.73l1.28,1.49,1.82,2.09a19.44,19.44,0,0,0,1.82,1.81,39.45,39.45,0,0,0,18.16,9.75l1.25.31,1.24.19,2.48.37a17.6,17.6,0,0,0,2.47.23l1.22.06.62,0,1,0a22.49,22.49,0,0,0,3.95-.39,8.1,8.1,0,0,0,1.92-.61,9.56,9.56,0,0,0,1.82-.88c.58-.35,1.15-.72,1.71-1.1a19.31,19.31,0,0,0,1.56-1.31c.47-.44,1.06-1,1.39-1.37l1-1.15a45.2,45.2,0,0,0,5.25-8.66c.21-.4-.21.37,0,0l.61-1,1.2-2c.77-1.32,1.43-2.66,2.14-4a118,118,0,0,0,6.46-16c1.74-5.32,3.08-10.65,4.27-15.58s2.49-10,3.7-14.92c.66-2.41,1.08-4.91,1.53-7.36s.89-4.87,1.32-7.26c.22-1.19.44-2.38.65-3.55l.32-1.76.2-1.77q.4-3.54.79-7t.76-6.72c.27-2.19.23-4.39.35-6.52s.16-4.22.24-6.27c0-1,.08-2,.12-3,0-.5,0-1,.05-1.49s0-1.16-.05-1.72a53,53,0,0,0-2-12.35,123,123,0,0,0-6.39-17.45l-1.47-3.18c-.23-.51-.46-1-.68-1.47l-.75-1.55a28.23,28.23,0,0,0-3.8-5.77,14.29,14.29,0,0,0-6.06-4.1,12,12,0,0,0-2.67-.54C260.71,382.26,260.39,382.26,260.39,382.26Zm-22.53,54.62c2.71,1.41,7.47-13.58,8.25-16.21-.2,1.81-.38,3.64-.7,5.42,2.11-2,2.91-7.66,5.6-7.87a38,38,0,0,0-3.93,7.41c-1.38,3-2.68,6.46-4.13,9.81s-2.91,6.68-4.38,9.5a24.53,24.53,0,0,1-4.56,6.39c.65-3,3-6.52,4.14-10.15C237.91,439.39,238.92,438.49,237.86,436.88Z"/><path class="cls-2" d="M494,761.76c-6,0-10.73-2.71-15-8.53-5.53-7-6.34-10.65-6.34-12.23v-.8l-.25-.76c-4.68-14.15-8.66-38.25-12.17-73.63l0-.21c-3-21.46-7.08-38.93-12-51.93-3.07-11-7.29-19.16-12.87-24.73.55-5,3.24-5.5,6.19-5.5,8.73,0,19.67,1.67,32.52,5a52.13,52.13,0,0,1,8.19,4.12l1.35.84,1.59-.1c27.48-1.77,52-4.88,72.77-9.25a317.79,317.79,0,0,0,54.53-16,40.56,40.56,0,0,1,14.55-2.9c9.7,0,25.47,5.34,46.88,15.85,32.11,19.09,37.22,28,38,30.87a19.45,19.45,0,0,1-3.75,2.29l-.26.14a68.51,68.51,0,0,0-23.78,22.2c-10.09,12.14-17.44,27.31-22.44,46.38l-.81,3.07,2.46,2a78.85,78.85,0,0,1,6.54,5.87c8.31,10.94,11.49,17.19,12.67,20.61-.45,0-1,.07-1.59.07a1173.25,1173.25,0,0,0-117.29,5.93c-30.87,2.87-47,4.21-55.48,4.62l-5,.24,1,15.72C503.34,754.78,500,761.76,494,761.76ZM606.76,597.17c-9.44,0-27.92,2.18-56.5,6.67-19.77,2.86-35.12,5-45.27,6.36l-10.45,1.44,6.61,89.41,4.86-.28c14.07-.82,31.79-2.76,54.15-5.94,16.39-1.41,32.52-3.32,49.3-5.81l2.88-.43,1-2.72A206.14,206.14,0,0,0,622,653.56c3.15-13.2,4.74-24.58,4.74-33.83C626.77,605.39,619.48,597.17,606.76,597.17ZM323.47,751.92c-8.57,0-16.31-8.25-23-24.51l-.13-.32-.18-.31c-6.09-10.32-9.09-22.61-9.16-37.55,6.88-28.16,12.62-58.25,17.07-89.45,6.12-27.22,9.23-69.88,9.23-126.81,0-119.41-2-185.82-6-203a151.63,151.63,0,0,0-20.1-44.69c.3-.62,1.13-1,3.46-1,17.07,0,35.09,4.88,53.56,14.5l.2.1c16.71,7.77,25.18,16,25.18,24.35,0,2.95-1.43,6.46-4.14,10.17l-.75,1-.16,1.25c-3.34,25.2-6.18,47.34-8.7,67.69l-.53,4.3,4.19,1.09c8.14,2.13,15.95,4.42,22.65,6.4,15.07,5.44,24.88,10.16,29.16,14,3.39,3.11,5,6.33,5,10.12,0,5-1.69,10.54-5.15,17a16.06,16.06,0,0,1-13.54,6.86c-5.14,0-8.55-1.87-10.71-5.87l-.55-1-.94-.67c-2.9-2.05-8.52-6.78-18.87-17.67a55.33,55.33,0,0,1-4.12-5.91l-7.86-12.45-1.28,14.63c-3.13,36.7-4.65,69-4.65,98.76V703.7c0,9.85-4.3,19.5-13.13,29.5l-.62.71-.33.9C334.44,746.16,329.38,751.92,323.47,751.92ZM425.2,552.58c-8.79,0-19.12-5.49-30.71-16.31-8.93-9.22-12.28-14.09-13.53-16.42h.21c19.61,0,56-3.33,108.14-9.89l3.31-.41.86-3.22c7.76-29.19,15.07-60.15,21.73-92l1.67-8L509,408.56c-10.43,3-21.45,6.41-33.69,10.49l-.92.31-.73.63a8.71,8.71,0,0,1-1.17.86c-1.78-.24-6.08-2-14.55-11.07a90.89,90.89,0,0,1-5.46-10.54c15.89-.51,26.71-1.86,33.17-4.13,10.54-2.81,21.58-5.17,32.82-7l3.66-.61.44-3.69c.72-6,1.7-11.32,2.48-15.3a222.12,222.12,0,0,0,5.32-50.27v-7.5H520.21c-25.58,0-42.28-5.64-49.63-16.77l-.12-.18-.13-.17c-4.54-5.72-6.73-9.4-7.8-11.67h.21c51.12-3.49,92.22-9.07,122.17-16.58a407,407,0,0,0,61.2-19.82l.38-.16.35-.22a17.88,17.88,0,0,1,9.74-2.59c3.2,0,9.59,1.43,19,4.26,14.88,8.52,15.31,13.21,15.31,13.73,0,5.12-.83,9-2.56,12l-.19.32-.13.34c-1.44,3.6-3.66,5.6-6.77,6.12l-.32,0-.31.09A747.2,747.2,0,0,1,575.89,302.9l-.42.07-.4.13a5,5,0,0,1-1.68.33H556.68l14,9.1a89.11,89.11,0,0,0,11.63,6.36l.19.09c1.4.57,2.84,1.65,2.84,5.27a6.5,6.5,0,0,1-.88,1.42l-.4.5-.26.58a327.13,327.13,0,0,0-15.88,43.87l-2.07,7.32,7.53-1.08c6.45-.92,11.48-1.7,16.24-2.53,13.09-1,27-4.56,41.42-10.65a51.21,51.21,0,0,1,7-.55c1.4.29,8.18,2.49,40,18,34.44,17.22,36.4,23.67,36.51,24.35,0,1.55-1.4,3.64-4,6-11,8.61-19.12,18.82-24.18,30.36-5.27,8.67-10.11,19.63-14.77,33.49l-2.67,7.95,8.25-1.5c17.9-3.25,35.32-6.8,51.78-10.54a66.33,66.33,0,0,1,8.39-.62c11.54,0,25.37,4,41.13,11.88,13.06,10.32,20,20.59,20,29.74,0,12.34-5.14,14-10.69,14-11.58,0-31.38-1.35-55.79-3.79-16.12-2.64-30-4-41.2-4-61.92,0-112.49,2.87-150.31,8.51a565.91,565.91,0,0,0-97.11,20.55l-.46.14-.43.23A36.41,36.41,0,0,1,425.2,552.58ZM606.76,391.92c-11.22,0-25.41,1.31-43.37,4l-3.28.49-.79,3.23c-8.45,34.44-17.27,67.22-26.24,97.42l-1.89,6.35h6.63a22,22,0,0,0,5.62-.66c27-3.64,50.09-6.81,70.5-9.7l3.23-.45.86-3.14a344.75,344.75,0,0,0,8-38,256.2,256.2,0,0,0,3.42-40.83c0-6.33-2.9-17.19-22.29-18.71l-.2,0ZM242.25,539.49c-9.7,0-17.1-3.32-22.61-10.14a48.93,48.93,0,0,1-4.07-19.66,79.51,79.51,0,0,1,3.7-22.42c22.93-42.37,35-69.11,37-81.76.72-5.37,2.14-8.13,3.15-8.76A15.68,15.68,0,0,1,262,401c6.18,12.9,9.29,23,9.29,30,0,20-3.21,41.61-9.55,64.23l-.06.22c-3.56,15.53-7.88,27-13.21,35.11l-.2.3-.15.32C244.47,538.93,242.32,539.48,242.25,539.49Z"/><path class="cls-1" d="M548.53,467.76c.59-2.42,2.67-16.36,5.43-15.5-1.33-1.31-.56-2.26-1.13-3.82.43-3.4,1.77-6.89,1.75-9.7-2.31,2.84-3.67,9.13-5.21,15.47s-3.1,12.82-5.26,16.08c2.53-.36,2.76-5.45,4.37-7.47C548.49,464.47,548.51,466.11,548.53,467.76Z"/><path class="cls-1" d="M630.61,417.36c-.09-.95-.18-1.88-.29-2.81l-.16-1.38c-.09-.52-.16-1-.23-1.56a18.23,18.23,0,0,0-2.51-6.93,14.16,14.16,0,0,1,.06,2.13c-.09.59-.33,1-.77,1-1-1.9-1.31-2.76-1.17-3.51s.68-1.2.84-1.94a3.61,3.61,0,0,0-2.07-1,3.79,3.79,0,0,0-1.72.21,33.2,33.2,0,0,1-3.19,1.29,11.35,11.35,0,0,0-4.22-3.9,23.79,23.79,0,0,1-4.48-3.47l-.18,2.54c-2.88-2.49-3.72,1.31-6.89-.09-.24-.5,1-1.18,2-1.79-3,.88-2.8-2.11-5.68-1l2.24-2.88c-2.35.12-5.71,1.11-4.66-1.33-3.79,3.19-11,2.49-15.73,4.8l.1-2.2c-1.18,1.47-3.54,1.68-5.85,2s-4.51.73-5.37,2.47l-.58-.81s-1.89,1-3.22,1.92a20.76,20.76,0,0,0-2.43,1.8,9.27,9.27,0,0,1-1.08,0,.89.89,0,0,1-.5.27,1.6,1.6,0,0,1-1.06-.31,4,4,0,0,1-.73-.64c-.38,2-.72,3.85-1.08,5.53-.16.72-.3,1.43-.44,2.11-.13.52-.25,1-.38,1.51a17.16,17.16,0,0,1-2.13,5c2.63,1.47,2.08,6.81,1.4,10.94a136.85,136.85,0,0,1-2.94,23.21c-.77,4-1.81,8-2.81,12s-2,7.75-3,11.39c-1.63,6.26-3,12-3.79,16.6h-.09c-.16,1.14-.31,2.23-.41,3.24,1.59-.18,3.13-.35,4.59-.46l0,0c11.57-1,19.4-.23,23.1-3.35,2.94,1.51,6.7-1.81,8.19.72,10.69-.31,14.82-1.75,24.88-3.21a1.36,1.36,0,0,1,.81.42,2.28,2.28,0,0,1,.29.69.57.57,0,0,1,0,.13v-.14l2-1.43.75-.52c0-.4,0-.83,0-1.19,0-.73,0-1.36.05-1.93a9.68,9.68,0,0,1,.21-1.38l.31-1.63c.86-4.37,2.26-8.65,2.45-13.68.16-2.45,1-5.69,2.26-5.92.12,1.73,1.36.69,1.75,2.14-.43-3.74-1.64.17-.23-4.83l1.4.13c-4.27-2.78-1.26-4.89-3.53-8.94,1.15-.72,2.06-1.06,2.17,1.79,1.18-3.1-1.31-3.69-.88-6.2.57,1.65,2,2.06,3.33,2.94-1.34-3.45,1.43-4.67,2.72-6.12-.84-.32-3.8.79-3.24-2.51.59-1.4,1.45-.52,2-.8a4.12,4.12,0,0,1-2.3-3.93c1.28-.34,1.72,1.62,3,2,.11-1.68,0-3.15,1.11-4.31-.89-3-1.82.09-3.08-1.81,1.17-4.49,1.45-1.24,4.26-2.76a31.33,31.33,0,0,1,1.58,5.71,24.68,24.68,0,0,0,1,4.45s-.09-1.71-.16-3.42-.27-3.41-.27-3.41c1.41.58,2.75-4.44,4-.75a27.77,27.77,0,0,0,.83-5.26A41.56,41.56,0,0,0,630.61,417.36Zm-15-4.64-.22,9.35-.61,9.34-1,9.33-1.34,9.33L609,468.73l-2.21,9.18-.58,2.33s0,.05,0,.05l-5.62.78-19.21,2.63L551,487.86l0-.14h0l7.11-25.11c.86-3.13,1.79-6.24,2.61-9.38l2.42-9.44L568,425l3.8-14.72,2.66-.37c3.16-.47,6.31-.79,9.44-1.15l4.71-.52,4.67-.34,4.68-.36,4.6-.14,2.31-.07,1.14,0a2.09,2.09,0,0,1,.44,0,26.76,26.76,0,0,1,3.72.55,10.28,10.28,0,0,1,4.6,2,2.19,2.19,0,0,1,.57.91,3.54,3.54,0,0,1,.16.76,1.26,1.26,0,0,1,0,.5A3.09,3.09,0,0,1,615.59,412.72Z"/><path class="cls-1" d="M615,482.18c-.22.8-.41,1.7-.59,2.61s-.36,1.86-.54,2.81l-.16.7,0,.18s-.1,0-.16,0l-.36.05c-.46.05-.94.11-1.41.14-2-.52-4-.8-4.35-1.82a5.16,5.16,0,0,0,.37,1.41l-16,3.46,5,.41c-2,1.45-7.12,1.27-7.47,3.74,3.34-1.9,9.91-3,16.34-4.06l5.64-1c1-.2,2-.38,3-.55,1.27.16,1-1.33,1.24-2.15.28-1.9.5-3.6.57-5a10.85,10.85,0,0,0-.29-3.16A14,14,0,0,0,615,482.18Z"/><path class="cls-1" d="M561.05,400.08a.28.28,0,0,0,.07.09v0S561.07,400.06,561.05,400.08Z"/><path d="M536.37,604.24h0C536.4,604,536.37,604,536.37,604.24Z"/><path d="M500.74,637.16c-1.79-1-1.35-2.47-2.47-4.11-.4-2.11-.57-4.36-.76-6.49a38.25,38.25,0,0,0-.95-6.16,34.66,34.66,0,0,0-.61,9.19c.13,3.58.53,7.65.95,11.76.84,8.2,1.77,16.53.84,21.31,2.37-1.45.68-7.61,1.54-10.67.63,1.94,1.27,3.9,1.9,5.86C500.87,654.73,497.64,637.24,500.74,637.16Z"/><path d="M507.38,688c-2.39.21-3.84.35-4.18.39,2.51,0-1.39,3.46,2.62,3,.84-.09,1.66-.17,2.48-.23,1.06,3.18,2.4,5.08,4.11,5.35,0,0-.15-2-.42-5.65-1.2.08-2.44.17-3.69.28C508,690.25,507.67,689.21,507.38,688Z"/><path d="M631.17,616.88a27.33,27.33,0,0,0-1.62-8.53,20.34,20.34,0,0,0-5.48-8.22,18,18,0,0,0-8.41-4.15c1.33.92,3,2.32,2.26,2.93a26.86,26.86,0,0,1-2.79-.93,3.34,3.34,0,0,1-1.26-.89c-.49-.63-.47-1.43-.93-2.12a4.27,4.27,0,0,0-3.62,2.17,20,20,0,0,1-2,3.24c-6.47-1.9-7.32-.61-13-3.29l.53,2.66c-4.05-1.77-4.07,2.34-8.35,1.16-.36-.51,1.12-1.37,2.34-2.11-3.62,1.22-3.69-1.9-7.12-.38l2.48-3.37c-2.84.46-6.87,1.92-5.75-.8-2.25,1.85-5.6,2.76-9.14,3.52s-7.21,1.52-10.12,2.86l.1-2.35c-2.84,3.32-11.77,1.62-13.93,5.31l-.71-.83-5.75,3.93a2.32,2.32,0,0,1-2.54-2.45c-6.25,1.5-11.14,2.34-15.25,1.75-.55,3.2-7.06,5-12.23,6.09-1.05.36-2.13.72-3.22,1.07l-3.27,1c-1.81.86-5,.37-3.54,3.51.19,1.1.38,2.2.59,3.31l.27,1.56.26,1.84c.36,2.51.71,5.07,1,7.64,1.24,10.25,2.09,20.72,2.95,30.16.95,10.44,1.92,19.62,3.44,25.87,1.22-.09,2.69-.2,4.38-.36-.78-10.33-2.15-29.09-3.92-53-.3-4-.61-8.21-.93-12.52h0l1-.14,33.28-4.68c11.59-1.52,23.4-3.52,35.39-5.1,6-.8,12-1.64,18-2.17l4.5-.45c1.5-.16,2.87-.16,4.32-.25l4.28-.21a10.84,10.84,0,0,1,2.83.21,4.88,4.88,0,0,1,1.7.59,2.56,2.56,0,0,1,.95.82,9.55,9.55,0,0,1,1.48,4.35c.08.52.1,1.09.16,1.64l.05,1.77-.17,4.19c0,2.76-.51,5.65-.76,8.47s-.93,5.69-1.37,8.52-1.22,5.77-1.81,8.62c-1.25,5.73-2.36,11.61-3.79,17-.62,2.74-1.42,5.35-2.18,8l-.57,1.94-.2.65,0,.19-.29.8c-.13.39-.09.22-.11.26-.54.06-1,.13-1.56.21l-8,1.07-7.72,1c-2.55.31-5.1.54-7.6.8l-14.4,1.51c-4.62.43-9.06,1-13.24,1.54s-8.21,1-11.95,1.5-7.25.93-10.49,1.35-6.15.55-8.81.82l-8,.7c.08,1.2.15,2.27.23,3.24,2.87-.21,5.56-.32,8.11-.4,4.3-.13,8.14-.08,11.54-.34,6.82-.38,11.73-.92,14.72-3,3.61,1.56,8.52-2,10.25.63,13.44-.27,18.75-1.6,31.46-3.12,1.88.28,1.22,1.79,1.8,3l-3.15.63-7,1.18-10.12,1.71,6.22.52c-2.55,1.52-9,1.25-9.59,3.88,4.3-2,12.62-3,20.78-4.09,4.07-.67,8.11-1.35,11.59-2.15a33.48,33.48,0,0,0,8.41-2.89,34.22,34.22,0,0,0-6.24.64c-2.11.38-4.28.8-6.41,1-2-.66-5-.87-4.9-2.3a54,54,0,0,1,8.53-3.16c1.39-.38,2.78-.7,4.17-1l2-.4,1-.21,1-.17c.15-.06.34,0,.45-.13l.19-.57c.25-.78.5-1.56.75-2.36.13-.46.2-.61.41-1.45s.35-1.43.54-2.15c.34-1.43.66-2.91.93-4.41.48-3,1.67-7,3.1-7.29,0,2.15,1.37.91,1.64,2.72-.08-4.68-1.71.19.23-6.07l1.46.19c-4.3-3.58-1.08-6.22-3-11.36,1.3-.88,2.32-1.26,2.1,2.32,1.63-3.84-1-4.68-.19-7.82.41,2.09,1.86,2.68,3.19,3.82-1-4.39,2-5.8,3.52-7.57-.87-.44-4.15.84-3.23-3.23.78-1.72,1.6-.61,2.2-1a5.38,5.38,0,0,1-2.28-4.9c1.37-.42,1.81,2,3.16,2.47.15-2.11,0-4,1.37-5.41-.88-3.73-1.9.12-3.24-2.2C620.63,619,621,623,624,620.93c1.82,4.53,1.65,10.41,2.47,12.88,0,0,0-2.19-.06-4.35,0-1.09,0-2.17,0-3a11.83,11.83,0,0,0-.07-1.35c1.5.74,2.85-5.86,4.2-1.11.23-1.1.4-2.24.54-3.4,0-.59.11-1.18.17-1.77S631.17,617.52,631.17,616.88Z"/><path class="cls-1" d="M513.73,689.38c-1.13.07-2.3.16-3.49.27-.32-.9-.59-1.89-.87-3l4.15-.34C513.59,687.45,513.66,688.46,513.73,689.38Z"/><path class="cls-3" d="M712,906.35c-3.18.38-6.43.49-9.65.71l-9.57.57c5.9-.09,11.92-.11,17.93-.31.45-.32.85-.65,1.29-1ZM726,850.24c-1.57,1.07-2.73,2-4.66,3.59,0,0,0,0,4.66-3.59ZM751,832.74c1.24-.94,2.35-1.84,3.49-2.76a6.24,6.24,0,0,1-3.49,2.76Zm-8.43.62,5.33-2.07c-.73.67-1.31,1.22-2,1.85-1.88.15-3.36.22-3.36.22ZM462.74,904.81l-5.82-.43c-1.93-.14-3.88-.24-5.78-.5-3.86-.49-7.71-.94-11.54-1.42l-5.72-.68c-1.94-.27-3.82-.64-5.74-.95-3.79-.63-7.59-1.31-11.38-1.94l-2.83-.47c-.94-.19-1.86-.41-2.8-.59l-5.63-1.24-11.25-2.47c-3.69-1-7.39-2-11.06-3l-5.53-1.49c-1.85-.49-3.71-1-5.53-1.62.87.32,1.68.65,2.53.92l2.56.8c1.68.56,3.39,1.09,5.12,1.64,3.33,1.07,10,2.94,6.07,2.76l5.21,1.43,5.28,1.22,10.56,2.39c3.53.92,7.1,1.46,10.7,2.12s7.15,1.32,10.78,2c1.77.35,3.59.6,5.43.82l5.43.73,11,1.52c3.7.32,7.38.67,11.08,1l5.57.5c1.82.17,3.69.4,5.56.42q8.36.38,16.51.88c5.46.23,10.83.23,16.06.46,6-.7,12-2.05,18.61-3.11s13.62-2.54,21.51-3.9c-3.3.43-6.67.83-10.07,1.29-1.7.21-3.44.44-5.15.61s-3.49.23-5.23.38c-7,.45-14.18,1.14-21.39,1.09-3.62.07-7.25.15-10.85.2-1.84.09-3.65,0-5.45-.09l-5.4-.16c-3.62-.09-7.23-.18-10.79-.29-3.55-.27-7.1-.55-10.59-.79ZM150.66,272.07c-3.6,6.33-7.31,12.55-10.79,18.9l-5,9.7-2.5,4.86-1.24,2.39-1.12,2.51c23.5-54.64,60.45-103.89,106.82-143.51a411.09,411.09,0,0,0-47.55,49.37,441.39,441.39,0,0,0-38.67,55.78Zm464.61,637.2s-3.35,1.45-8,3.44c.1,0,.1,0,.12-.06l7.86-3.38Zm-209-3c1.81.12,3.42.2,4.84.31s2.63.06,3.67.08c2.07.05,3.43,0,4.38.05l1.81,0c3.73.51,7.07.92,10.21,1.31-.85,0-1.78-.09-2.95-.19-5.48-.33-11-.63-15.12-.88-2.08-.1-3.75-.39-4.94-.51l-1.9-.2Zm548.63-301.8c.24-1.74,1.18-5.83,2-9,1.22-4.29,2-8.61,2.92-12.87s1.81-8.48,2.7-12.64q1.1-6.32,2.09-12.42c.68-4.11,1.46-8.11,2-12.06a19.75,19.75,0,0,1,.57-3.16c.14-3.45.6-8.95,1.22-14.4A472.12,472.12,0,0,0,947.2,342a456.88,456.88,0,0,0-93.7-163.57,474.14,474.14,0,0,1,94,169c1.37,4.88,2.79,9.75,4.12,14.61.67,2.43,1.36,4.82,2,7.26s1.14,4.88,1.68,7.32c1.11,4.86,2.25,9.7,3.33,14.54.89,4.87,1.77,9.78,2.63,14.63l1.29,7.23,1,7.36c.64,4.86,1.28,9.71,1.89,14.55.4,4.9.82,9.76,1.24,14.62l.56,7.3c.17,2.45.2,4.87.29,7.32l.49,14.63c.09,4.89-.07,9.77-.11,14.68l-.1,7.31c0,2.45-.27,4.91-.35,7.35-.29,4.9-.6,9.82-.87,14.73s-1,9.81-1.5,14.76-1,9.88-1.8,14.81-1.51,9.87-2.25,14.86-1.94,9.93-2.94,14.91c-.78,4.13-1.49,6.91-1.57,6.52a54.7,54.7,0,0,1,1.27-7.92c8.28-40.78,10.64-81.44,8.67-121.3-.26-5-.8-10-1.16-14.92l-.6-7.46c-.21-2.47-.6-4.92-.9-7.4-.63-4.94-1.29-9.85-1.92-14.79s-1.74-9.76-2.55-14.62l-1.32-7.34c-.4-2.45-1-4.83-1.58-7.27l-3.32-14.49c-.48-2.46-1.27-4.82-1.93-7.2l-2-7.16c-1.34-4.77-2.61-9.6-4.26-14.29s-3.15-9.42-4.75-14.13c-.74-2.38-1.7-4.67-2.6-7l-2.72-7c-3.44-9.37-7.71-18.43-11.78-27.6-.54-1.13-1-2.28-1.59-3.43l-1.72-3.33-3.41-6.74L913,266.72l-1.74-3.38-1.9-3.26c-2.51-4.4-5.08-8.78-7.6-13.18l-1.91-3.31-2.1-3.21c-1.37-2.13-2.77-4.27-4.16-6.42s-2.79-4.29-4.17-6.47l-2.11-3.21c-.69-1.08-1.47-2.09-2.22-3.14L876,208.65c-3-4.25-6.34-8.19-9.61-12.27l-4.92-6.07c-1.64-2-3.24-4.11-5-6-7-7.75-13.87-15.83-21.59-23.19-1.87-1.84-3.76-3.75-5.66-5.62s-3.73-3.86-5.77-5.59q-6-5.35-12-10.81l-3.79-3.38-4-3.22-7.91-6.34c2.56,2.25,5.11,4.44,7.66,6.63l3.79,3.29,3.66,3.48c4.81,4.65,9.73,9.2,14.42,13.92L838.93,168l1.71,1.84,1.59,1.87,3.27,3.77,6.44,7.55a484,484,0,0,1,45.29,64.5l7.52,12.78c1.23,2.14,2.58,4.22,3.73,6.4l3.42,6.57c2.32,4.37,4.65,8.71,6.87,13.16L925,299.79l3.1,6.74,2.78,6.85,5.53,13.75,4.87,14,2.41,7c.76,2.35,1.42,4.73,2.12,7.09L950,369.34c1.26,4.78,2.36,9.59,3.5,14.34l1.75,7.19c.55,2.41.92,4.83,1.42,7.26l2.75,14.48c.78,4.85,1.4,9.73,2.13,14.6l1,7.28c.36,2.43.5,4.87.76,7.33l1.34,14.68c.37,4.87.49,9.79.73,14.67,1.77,39.22-2.08,78.51-10.17,116.66-.43,2.37-1,4.73-1.64,7.1l-1.77,7.1L950,609.14c-.28,1.19-.55,2.34-.92,3.53l-1,3.48-4.24,14-1.07,3.49-1.23,3.45-2.42,6.87c-6.31,18.39-14.34,36.11-22.88,53.5-3.49,6.65-6.61,12.07-6.84,11.94s2.43-5.81,5.89-12.44c2.39-4.87,4.57-9.87,6.88-14.84l3.37-7.46,3-7.61,3-7.62c1-2.54,2.07-5,2.87-7.66l5.3-15.52c.42-1.29.93-2.57,1.29-3.89l1.15-3.93,2.25-7.87,2.26-7.88c.72-2.65,1.28-5.33,1.92-8,1.23-5.32,2.58-10.61,3.72-16l3-16.16.76-4,.57-4.08,1.1-8.14,1.1-8.15c.4-2.69.51-5.42.79-8.14.44-5.46,1-10.92,1.38-16.4l.66-16.42.15-4.09c0-1.38,0-2.76,0-4.11l-.07-8.25c-.05-5.43,0-10.95-.43-16.42l-1-16.39-1.72-16.38c.43,6.22,1,12.35,1.3,18.58s.53,12.26.82,18.35a456.41,456.41,0,0,1-25.9,166.72c-.9,2.5-1.73,4.95-2.55,7.32s-1.88,4.6-2.76,6.76c-1.79,4.3-3.5,8.22-5,11.55a73.73,73.73,0,0,1-4,8,16.13,16.13,0,0,1-2.23,3.4c-.56.21.63-3.27,2.93-9.07,1-2.95,2.35-6.51,3.84-10.5.73-2,1.58-4.08,2.39-6.28s1.77-4.49,2.52-6.89c-1.05,3.15-2.43,6.11-3.66,9.21s-2.34,5.25-2.15,4.45c.32-1.17,1.77-5.1,3-8.08,1.2-2.72,2.15-5.54,3.17-8.32l3-8.34c1-2.77,2-5.51,2.95-8.32l2.57-8.44A456.7,456.7,0,0,0,917,308.58a458.74,458.74,0,0,1,10.86,340.48c.88-2.25,1.19-2.56.36.2a83.7,83.7,0,0,1-3.53,9.2c-1.14,2.63-1.19,2.16-.4-.14a.71.71,0,0,0,.11-.28A450.21,450.21,0,0,1,821.3,815a47.12,47.12,0,0,1-5.08,4.79,8.55,8.55,0,0,1,1.38-1.66c.92-1,2.2-2.33,3.64-3.78l6.92-7c2.28-2.32,4.63-4.61,6.75-7.11l13-14.62,12.29-15.25c2.09-2.52,3.94-5.22,5.86-7.84l5.74-7.94a456.09,456.09,0,0,0,39.43-67.47l4-8.87c1.35-3,2.83-5.89,3.94-8.92l7.22-18.14,6.36-18.46c.55-1.51,1-3.08,1.47-4.65l1.35-4.69,2.71-9.36a453.59,453.59,0,0,0-57.27-370.19L876.44,237l-2.31-3.46c-.79-1.14-1.64-2.24-2.48-3.37-3.33-4.43-6.66-8.85-10-13.33l0,0c-.63-.5-1.43-1.25-2.38-2.1s-2.08-1.88-3.32-3.07c-2.49-2.37-5.45-5.37-8.81-8.9a453.62,453.62,0,0,1,59.07,89,458.33,458.33,0,0,1,36,100.7A449,449,0,0,1,948,570.07c-1.56,8.5-3.18,15.64-3.62,16s.52-6.59,2.11-15.46c.74-3.59,1.14-7.21,1.62-10.81l1.46-10.86c.57-3.6.78-7.28,1.1-10.9l.92-10.9c-1.55,12.16-2.9,20.21-4,21.22-.43.54-.62-.66-.63-3.19s-.11-6.48,0-11.41c-.4,4-.71,8.06-1.14,12.13s-1.1,8.14-1.64,12.24c-1,8.27-2.67,16.5-4.12,24.88-.65,4.21-1.68,8.33-2.59,12.52s-1.87,8.36-2.81,12.54c-1.14,4.15-2.28,8.3-3.44,12.48s-2.16,8.33-3.6,12.39c-10.3,32.92-24.54,64.38-40.94,91-1.87,3.12-3,4.83-2.54,3.7s2.3-4.36,4.14-7.51c1.42-2.42,2.86-4.87,4.29-7.32.7-1.22,1.44-2.46,2.1-3.7l2-3.79c2.58-5.08,5.2-10.22,7.85-15.34,2.34-5.26,4.71-10.58,7.12-15.88l1.74-4,1.63-4.09c1-2.73,2.09-5.44,3.14-8.2s2.11-5.47,3.17-8.19,1.83-5.59,2.78-8.4,1.83-5.59,2.72-8.4c.49-1.38,1-2.77,1.38-4.19l1.18-4.3c1.55-5.71,3.16-11.38,4.64-17.12l3.86-17.3a481,481,0,0,0,8.6-69.87c.17-5.84.35-11.58.5-17.38-.05-5.75-.15-11.47-.21-17.18l-.07-4.27c0-1.41-.17-2.84-.24-4.24-.17-2.84-.33-5.64-.52-8.45s-.31-5.59-.47-8.38-.58-5.57-.84-8.33c-.55-4.33-1.07-8.64-1.61-12.91s-1.46-8.55-2.21-12.82c-1.3-8.54-3.39-17-5.24-25.4-.85-4.24-2.08-8.38-3.23-12.57s-2.29-8.32-3.44-12.51c-1.38-4.1-2.73-8.23-4.09-12.36s-2.65-8.31-4.29-12.34-3.11-8.18-4.71-12.27l-1.17-3.07-1.3-3c-.9-2-1.79-4.07-2.67-6-1.8-4-3.49-8.14-5.4-12.15s-4-8-6-12c-1-2-2-4-3-6s-2.17-3.94-3.29-5.88q-3.3-5.94-6.67-11.91c-2.3-3.92-4.83-7.76-7.23-11.66s-4.81-7.88-7.58-11.68A450.25,450.25,0,0,0,761.86,141.91,430.78,430.78,0,0,0,624.79,75.45c-35.11-9.37-71.24-13.74-107-14.24,5.08.66,8.13,1.36,8.2,2,0,.19-.36.32-.71.48l5.91.13,2.92.09,2.92.22L548.8,65l5.91.44,5.87.72q5.89.67,11.76,1.42l3,.38,2.91.48,5.9,1c3.88.69,7.82,1.35,11.76,2L607.58,74c3.91.88,7.86,1.6,11.71,2.74L632.8,80.4l3.35.94,3.32,1.06,6.66,2.18,6.64,2.12c1.1.37,2.22.7,3.31,1.1L659.36,89,672.43,94l3.26,1.24,3.18,1.38,6.39,2.8,6.41,2.78,3.19,1.37,3.13,1.56,12.49,6.2,3.09,1.54c1,.54,2.06,1.13,3,1.69l6.08,3.42c16.33,8.8,31.72,19.26,46.75,30,3.65,2.87,7.32,5.7,11,8.56l5.47,4.25,5.23,4.54c3.53,3,7,6.05,10.54,9.09s6.72,6.36,10.07,9.53c6.81,6.27,13,13.16,19.39,19.84,3.26,3.3,6.13,6.93,9.12,10.42s6.06,7,8.94,10.59l8.45,11,4.21,5.5,3.9,5.71,7.89,11.37c2.51,3.87,4.82,7.85,7.28,11.74,5.06,7.76,9.23,16,13.73,24,.53,1,1.12,2,1.62,3.06l1.52,3.09,3,6.21,3.05,6.22,1.49,3.12,1.35,3.17c3.59,8.49,7.4,16.9,10.4,25.58l2.37,6.5c.76,2.18,1.65,4.3,2.32,6.51l4.11,13.16c.7,2.23,1.47,4.41,2,6.65l1.75,6.66c1.13,4.44,2.36,8.89,3.42,13.38L935.92,411l1.41,6.73,1.09,6.82,2.16,13.61,1.53,13.74.77,6.85c.22,2.3.29,4.62.44,6.88l.85,13.79c.49,18.38.49,36.79-1.29,55.1l-.59,6.86c-.12,1.15-.17,2.3-.3,3.45l-.45,3.4-1.8,13.68-.48,3.44-.6,3.36-1.21,6.81-1.23,6.76c-.41,2.26-.79,4.53-1.37,6.77-2.16,8.94-3.93,18-6.66,26.75-1.29,4.41-2.46,8.85-3.81,13.22L920,642c-.76,2.19-1.47,4.36-2.24,6.54l-2.55,6.4-5,12.84c-1.86,4.18-3.76,8.37-5.65,12.54l-2.85,6.31c-.93,2.09-2.09,4.05-3.1,6.14l-6.31,12.24c-1,2.08-2.17,4-3.34,6l-3.48,6L882,723l-1.74,3c-.61,1-1.24,2-1.87,2.91l-7.53,11.55c-2.4,3.91-5.14,7.58-7.87,11.31l-8.09,11.14-8.67,10.73L841.88,779c-1.43,1.8-3,3.42-4.56,5.17-12.24,14.23-22.81,23.45-21.92,21.73.37-.88,3.4-4.44,8-9.42,2.31-2.53,4.75-5.59,7.53-8.8s5.81-6.6,8.79-10.14a431.49,431.49,0,0,0,55.79-87.26c2-3.8,3.62-7.75,5.34-11.7L906,666.8l4.55-12c1.47-4,3.11-8,4.33-12,2.56-8.19,5.4-16.26,7.46-24.55l3.31-12.34,2.73-12.54c2-8.28,3.12-16.76,4.62-25.15.82-4.2,1.15-8.46,1.68-12.7s1.09-8.5,1.5-12.75c1.35-17,2.35-34.13,1.78-51.29-.1-17.16-1.85-34.34-3.85-51.53-.62-4.28-1.35-8.53-2-12.82s-1.27-8.58-2.27-12.81-1.73-8.53-2.63-12.79l-.66-3.21-.81-3.17-1.62-6.37c-.74-3-1.51-6-2.27-9-.36-1.52-.79-3-1.25-4.47l-1.35-4.38c-.89-2.95-1.81-5.87-2.69-8.77l-1.31-4.37-1.54-4.28c-2.09-5.68-4-11.37-6.19-16.95q-3.48-8.26-6.86-16.47A450.15,450.15,0,0,0,867,258.4c-3.28-4.83-6.57-9.63-9.84-14.45-3.51-4.66-7-9.31-10.53-14-.89-1.12-1.73-2.33-2.65-3.47l-2.85-3.36c-1.86-2.24-3.76-4.5-5.63-6.74s-3.75-4.53-5.7-6.78-4-4.29-6-6.48c-7.85-8.83-16.53-17-25.26-25.41-4.54-4-9.08-8-13.67-12-2.23-2.05-4.73-3.87-7.13-5.8s-4.84-3.84-7.25-5.74A417.33,417.33,0,0,0,619.61,80.27a429.38,429.38,0,0,0-164.85-9.81c-2.75.31-5.45.91-8.16,1.38s-5.43,1-8.14,1.43l-4.08.73a34.79,34.79,0,0,0-4.07.78c-2.71.55-5.44,1.14-8.12,1.7s-5.55,1.17-8.26,1.72c-1.41.24-2.75.62-4.13,1l-4.05,1.06c-2.72.72-5.43,1.41-8.13,2.09s-5.41,1.38-8,2.24c-5.22,1.65-10.4,3.33-15.59,5s-10.19,3.8-15.28,5.7-10.06,4.1-15,6.21l-7.43,3.23c-1.25.52-2.47,1.13-3.67,1.71L329,108.21a395.41,395.41,0,0,0-55.45,32.44L267,145.22l-3.28,2.32c-1.06.79-2.09,1.6-3.14,2.45-4.2,3.24-8.38,6.53-12.55,9.78s-8,6.94-12.1,10.39c-2,1.74-4,3.42-5.94,5.22l-5.74,5.5-5.72,5.52-2.86,2.73c-1,.9-1.82,1.89-2.72,2.86l-10.84,11.54c-1.85,1.87-3.47,4-5.18,5.95l-5.11,6-5.07,6-4.79,6.27c31.56-39.06,70-72.84,113.43-98A414.87,414.87,0,0,1,435.7,78.81c7.07-1.08,11.85-1.42,11.26-.84-1.11.72-7.33,2.07-14.38,3.25l-12.67,2.65-6.37,1.3-6.28,1.67-12.5,3.27c-4.14,1.22-8.27,2.57-12.4,3.85l-6.15,1.91c-2,.62-4.07,1.48-6.1,2.2L358,102.51c-2.06.71-4,1.61-6,2.43L346,107.49l-6,2.5-3,1.29-2.89,1.4c-7.75,3.8-15.59,7.32-23.05,11.67-3.76,2.09-7.59,4.06-11.3,6.22l-11,6.76-5.5,3.38-5.3,3.65-10.65,7.29c-3.48,2.51-6.84,5.18-10.27,7.77s-6.95,5.08-10.14,7.93c-6.5,5.59-13.24,10.92-19.38,17l-9.37,8.81-8.94,9.26c-6.13,6-11.5,12.7-17.19,19.1l-2.12,2.41-2,2.53-4,5-4,5.07c-1.29,1.66-2.71,3.3-3.89,5.07l-7.4,10.49c-1.25,1.73-2.5,3.47-3.72,5.22l-3.43,5.42-6.87,10.79c-2.17,3.65-4.22,7.41-6.32,11.1-4.42,7.3-8,15.07-11.91,22.63-.48,1-1,1.91-1.43,2.89l-1.31,2.92-2.57,5.82-2.59,5.86-1.31,2.91c-.43,1-.77,2-1.16,3-1.11,4.56-2.42,9.71-4,15.28s-2.81,11.92-4.49,18.47c-.44,1.62-.77,3.35-1.13,5.07s-.7,3.44-1.06,5.24c-.74,3.51-1.52,7.12-2.28,10.83s-1.29,7.55-2,11.44-1.47,7.8-1.88,11.89c-.56,4-1.1,8.14-1.66,12.27-.12,1.06-.26,2.07-.42,3.12l-.27,3.16c-.2,2.11-.4,4.22-.56,6.36s-.42,4.25-.63,6.4l-.31,3.22-.17,3.22c-.24,4.32-.45,8.69-.7,13-.48,17.48-.54,35.16.89,52.28a528.37,528.37,0,0,0,9.9,71.63c-.38-1.31-.75-2.65-1.11-3.94s-.76-2.66-1-4c-.62-2.67-1.19-5.35-1.82-8s-1.21-5.31-1.83-8-1-5.4-1.51-8.15q.47,3.09.9,6c.26,2,.77,3.93,1.11,5.87.71,3.89,1.42,7.7,2.17,11.44.16,1,.33,1.89.5,2.81s.42,1.86.65,2.77c.39,1.84.84,3.67,1.25,5.47.77,3.62,1.59,7.18,2.37,10.72,1,3.52,1.88,7,2.8,10.41.45,1.74.89,3.43,1.36,5.13s.85,3.41,1.39,5.07q1.59,5,3.08,10c1,3.3,1.94,6.64,3.21,9.85,1,2.21,2,4.4,3,6.79l2.57,5.43c.43.94.86,1.88,1.32,2.76l1.42,2.72c1.91,3.62,3.8,7.27,5.73,10.94s4.06,7.28,6.12,10.94c1.06,1.82,2.1,3.68,3.15,5.5s2,3.73,3.24,5.51c2.29,3.57,4.59,7.19,6.9,10.81,1.16,1.8,2.21,3.7,3.48,5.47s2.49,3.52,3.74,5.31c2.53,3.54,4.91,7.16,7.49,10.68s5.36,6.93,8,10.42c1.33,1.72,2.63,3.5,4,5.2l4.3,5c2.84,3.36,5.7,6.69,8.58,10.07l9.08,9.65,4.51,4.8,4.77,4.58c3.18,3.08,6.35,6.1,9.5,9.16s6.64,5.74,9.91,8.56c1.63,1.45,3.3,2.88,4.94,4.29s3.41,2.68,5.08,4c3.39,2.63,6.82,5.27,10.2,7.85-1.6-.34-3.43-1-5.06-1.31,1.31.92,2.53,1.84,3.71,2.68.59.42,1.16.79,1.75,1.22s1.17.7,1.74,1.07c2.34,1.42,4.56,2.73,6.77,4.07s4.47,2.72,6.89,4.22c1.19.82,2.48,1.55,3.83,2.32s2.75,1.6,4.25,2.5c-3.56-1.72-7-3.16-10.44-5.11.26.15.47.31.7.44l2.42,1.51c.8.5,1.68,1,2.54,1.44,1.68,1,3.43,2,5.19,2.91s3.52,2.09,5.37,3.14c.87.54,1.77,1.1,2.7,1.63a32.05,32.05,0,0,0,2.8,1.59c7.67,4,15.41,8.72,23.78,12.74a485.26,485.26,0,0,0,62.68,22,456.89,456.89,0,0,0,72.84,13.7,430.79,430.79,0,0,0,153-11.17c7.24-2.21,14.21-3.65,15.27-3.14s-4,2.67-11.41,4.94c-1.8.63-3.55,1.25-5.33,1.85s-3.57,1.07-5.35,1.58c-3.57,1.07-7.13,2.1-10.64,3.15l-2.63.78-2.68.65-5.32,1.29c-3.6.88-7.16,1.77-10.74,2.62l-10.93,2.11c-3.65.67-7.32,1.51-11.13,1.92-7.5,1-15.23,2.24-23.3,2.7-3.74.27-7.49.58-11.19.88-3.73.1-7.47.24-11.16.37-7.45.43-14.82.12-22.22.09-3.69,0-7.38-.22-11-.44l-11-.61c-3.69-.26-7.34-.77-11-1.12l-5.52-.56c-1.81-.21-3.69-.36-5.5-.69a372.66,372.66,0,0,1-87.75-23c-3.54-1.14-6.91-2.58-10.34-3.91-2.55-.8-5.12-1.66-7.68-2.46L325,852.8c-1.27-.46-2.52-.95-3.78-1.41l2,1c6.47,2.81,13,5.43,19.5,8.12-1.2-.33-2.49-.76-3.76-1.13a400.26,400.26,0,0,0,77.59,23.77,457.19,457.19,0,0,0,161.48-1.23,459.7,459.7,0,0,0,78.78-22A489,489,0,0,0,727,826.65c7.75-4.66,13.1-7.85,12.63-6.33-.29.74-2,2.55-4.66,4.67s-6.25,4.47-10,6.87a420.6,420.6,0,0,1-65.28,35.75,476.71,476.71,0,0,1-68.27,23.75c-1.82.45,1.39.93-2,2l-5.28,1.53c2.87-.68,5.81-1.23,8.82-2s6.09-1.65,9.32-2.51c3.06-.53,5.9-1,8.5-1.44s5-1.11,7.16-1.6c4.35-1,8-1.78,11.05-2.48,1.53-.31,2.92-.7,4.16-1l3.47-.95,5.43-1.49c.05,0,.07-.05.12-.06l1.86-.51c2.92-.83,5.49-1.37,9.13-2.62a.13.13,0,0,0,0,.09l2.28-.72c3.46-1.47,6.94-2.9,10.43-4.36,1-.41,1.94-.81,2.88-1.15s1.84-.78,2.69-1.13a32.21,32.21,0,0,1,4.09-1.43c1.28-.88,2.64-1.81,4.34-2.89,2.44-1.14,4.55-2.17,6.44-3.1s3.49-1.85,5-2.65c3-1.59,5.32-2.91,7.71-4.21,1.21-.66,2.4-1.29,3.68-2s2.65-1.36,4.09-2.29c3-1.81,6.48-3.95,11.2-6.8,0,0,.07.26-.37,1,.36-.18,2.15-1.17,4.81-2.63s5.94-3.68,9.51-6.06c3.48-2.2,5.21-3.32,8.22-5.31s7-5.24,15.34-11.47l-7.57,6.78,6.73-5.77-1.25,2.43,2.58-3.55.44-.15c.45-.18,1.38-.43,3.09-1.21,0,0,0,0,11.9-13.33,1.14-.7,3.58-2.76,9.83-7.76,0,0,1.79-1.25,3.25-2,.34.15.32.18,6.25-3.34,0,0,.37.21.12,1-1.33,1.73-1.33,1.73-1.06,3,0,0-1.53,1.92-3.93,4.61-1.21,1.19-2,1.93-3.52,3.49-.79.77-1.77,1.74-3.1,3.08-.68.66-1.44,1.45-2.35,2.29s-2,1.76-3.12,2.8c.94-.51,1.87-1,2.7-1.39,3,.32,3.12.21-6.58,14.28l-1.12,1.19c-.74.76-1.8,1.94-3.29,3.32-3,2.73-7.47,6.61-13,11.26-3.27,2.59-5.95,4.24-8.12,5.76s-3.95,2.72-5.82,4-3.79,2.6-6.26,4.26-5.63,3.46-9.75,6L720,863.7c-1.67,1-4.09,2.6-7.2,4.45-4.54,3.22-5.46,3.92-8.8,6.42a.23.23,0,0,1-.09.08c3.35-1.67,6.6-3.17,9.35-4.32,7.89-3.58,9.38-3.21,3.35,1.25,4.84-.91,6.31,0,5.36,2.31a18.24,18.24,0,0,1-3.17,4.35c-1.63,1.64-3.79,3.51-6.3,5.62,3.78-.73,5.79-.5,5.73.82,3.6-1,6.73-2,9.62-2.86s5.51-1.49,7.8-2c4.65-1,8.18-1.19,10.52-.78l2.67,1.52a18.65,18.65,0,0,1-3.4,4c-1.57,1.54-3.59,3.32-6,5.33s-5.29,4.23-8.56,6.6-7,4.69-11.1,7.25c-1.62,1.09-3.24,2.17-4.89,3.24,1.89-.1,3.78-.21,5.65-.36-2.47,2.13-5.27,4.37-8.37,6.75-3.18,2.21-6.68,4.53-10.33,6.95-1.86,1.21-3.76,2.4-5.66,3.67s-3.93,2.52-6,3.65c-4.15,2.31-8.38,4.69-12.67,7.1-2.15,1.17-4.3,2.48-6.51,3.53s-4.45,2.23-6.66,3.28q-6.68,3.35-13.14,6.53c-4.39,2-8.63,3.9-12.72,5.72-2,.94-4,1.85-5.94,2.77-1,.46-1.93.86-2.86,1.34s-1.89.8-2.8,1.16l-11.12,4.14c-3.72,1.32-7.42,2.84-11.23,4-16.38,5.69-43.13,11.75-74.87,13.94l-8.4.5c-2.79.15-5.58.44-8.39.41l-16.81.25c-1.77,0-3.54,0-5.31-.1l-5.27-.25c-3.51-.2-7.06-.39-10.59-.56,17.59,2.67,31.3,4.11,39.82,6.16,8.49,1.65,11.75,3.59,8.28,5.85a29.93,29.93,0,0,1-7.65,2.8c-3.61.73-8.17,1.46-13.6,2.12-2.72.33-5.64.63-8.78.93s-6.47.33-10,.47-7.2.17-11.06.2c-1.94,0-3.93.08-5.95,0s-4.05-.17-6.16-.28c-8.36-.43-17.36-.71-26.77-2-4.72-.6-9.53-1.2-14.48-1.78-4.88-.78-9.89-1.71-14.95-2.62-10.22-1.68-20.57-4.42-31.17-7-2.66-.61-5.29-1.44-7.93-2.25l-7.95-2.43c-5.28-1.69-10.68-3.24-15.92-5.3a504.71,504.71,0,0,1-155.52-87l-8.57-7.1-4.24-3.59-4.08-3.72c-5.42-5-11-10-16.26-15.14l-15.48-15.82c-.25-.24-.46-.49-.72-.72l-.24-.27c-.95-1-1.85-2-2.79-3.07L129,835.71l-7.32-8.31a513,513,0,0,1-51.56-71.81L64.54,746l-2.77-4.81-1.33-2.41-1.26-2.46q-5-9.87-10.07-19.73c-3-6.74-6-13.47-9.07-20.25L38.9,693.8l-1-2.58-2-5.16-4-10.31A508.22,508.22,0,0,1,8.3,590.2a501,501,0,0,1-.58-178.38c15.72-88,53.47-167.4,107.31-232.12,3.43-4,6.74-8.08,10.19-12.09l10.68-11.55,5.38-5.79c1.79-1.91,3.72-3.69,5.6-5.54l11.24-11c1.83-1.84,3.85-3.57,5.8-5.3l5.9-5.23,5.88-5.2c2-1.77,3.94-3.48,6-5.1,4.13-3.27,8.23-6.57,12.33-9.86,2.09-1.61,4.09-3.35,6.26-4.86l6.39-4.65c4.28-3.07,8.55-6.13,12.88-9.21l13.3-8.66,6.69-4.31c2.26-1.37,4.57-2.67,6.87-4,4.57-2.67,9.18-5.33,13.79-8s9.46-5,14.17-7.42c2.41-1.24,4.77-2.48,7.16-3.69s4.83-2.27,7.27-3.41q7.29-3.39,14.64-6.72c4.94-2.16,10-4,15-6.09,9.63-3.9,19.52-6.86,29.31-10.11,2.46-.87,4.92-1.52,7.4-2.2l7.45-2L370,15.57l3.71-1,3.76-.87c10-2.19,19.95-4.61,30-6.16l7.55-1.29c2.5-.41,5-1,7.54-1.21l15.11-1.87c2.53-.31,5-.66,7.57-.88l7.57-.58C457.9,1.36,463,1,468,.61L483.13.19,490.7,0c2.53,0,5,.06,7.56.12l15.09.33c5,.19,10,.61,15,.93,10,.5,20,1.89,29.91,3l3.72.45,3.72.59,7.37,1.23,7.41,1.25c2.44.38,4.91.79,7.35,1.34l14.65,3.15c2.44.56,4.91,1,7.3,1.67L617.05,16c4.84,1.31,9.63,2.55,14.45,3.9l14.23,4.52,7.13,2.27c2.34.8,4.65,1.72,7,2.58l14,5.2A493.56,493.56,0,0,1,778.19,91.57a453.79,453.79,0,0,1,70.68,63.07,474.25,474.25,0,0,1,52.59,69.61c29.88,48.18,50.13,99.79,61.94,156.58.71,3.28.58,3.74,0,2.11-.76-2.49-1.85-7-2.45-9.95a468.8,468.8,0,0,0-51-127.65A452.59,452.59,0,0,0,870.49,188l-5.44-6.85c-1.87-2.24-3.83-4.4-5.74-6.62-3.86-4.34-7.67-8.77-11.62-13.11-8.21-8.34-16.23-16.95-25-24.79C814.18,128.4,805,121,795.89,113.46c-4.68-3.66-9.45-7.16-14.19-10.73-2.4-1.76-4.69-3.63-7.2-5.28l-7.38-5-7.41-5c-1.23-.83-2.49-1.67-3.74-2.47l-3.81-2.35c-5.1-3.07-10.24-6.17-15.39-9.23s-10.54-5.7-15.81-8.56-10.75-5.42-16.18-8-10.88-5.28-16.49-7.46-11.16-4.69-16.8-6.9l-17.2-6.12c-1.41-.5-2.85-1-4.3-1.49l-4.34-1.33-8.79-2.65c-2.91-.87-5.84-1.79-8.76-2.63l-8.9-2.22-9-2.22-4.45-1.09-4.53-.92c-6-1.19-12.06-2.36-18.14-3.55-6.06-.93-12.18-1.83-18.3-2.74L560.6,15l-4.2-.43c-2.83-.26-5.63-.54-8.43-.83l-8.37-.79c-1.4-.14-2.79-.23-4.19-.29l-4.21-.21c-5.55-.28-11.13-.53-16.68-.81-5.56,0-11.09,0-16.6,0-2.42.11-5.1.07-8,.25l-15,.87c-2.5.19-5,.24-7.5.54l-7.5.75c-5,.56-10,1.07-15,1.64L430,18c3.49-.45,7-1,10.42-1.44l5.19-.75,5.24-.47c6.93-.68,13.36-1.17,18.24-1.31,4.87,0,8.19.25,8.78.67.11.33-1.79.77-4.93,1.22q9.6-.3,19.18-.57,9.55.21,19.06.38c3.2,0,6.36.26,9.51.48l9.46.62,4.73.34,2.36.16,2.34.25,9.37,1.1,9.39,1.06c3.1.37,6.19,1,9.3,1.45L577,22.72c3.08.49,6.2,1,9.23,1.72,6.11,1.29,12.21,2.62,18.32,3.92l18.09,4.79c1.82.47,3.6.88,5.36,1.39s3.46,1.06,5.13,1.57c3.41,1.07,6.71,2.08,9.94,3.08,6.47,1.89,12.38,4.39,17.89,6.43a467.84,467.84,0,0,1,149.5,83.65c3.72,3,7.22,6.2,10.82,9.29l5.27,4.7c1.71,1.59,3.47,3.11,5,4.74,3.19,3.21,6.25,6.34,9,9.28,1.38,1.48,2.75,2.92,4,4.26s2.46,2.66,3.51,4c2.11,2.59,3.92,4.84,5.33,6.74a42.61,42.61,0,0,1,3.29,4.79c43.23,49.5,76.16,108.49,95,170.81A467.78,467.78,0,0,1,970,442.56a461.1,461.1,0,0,1-1.34,93.85c-.74,6.21-1.31,9.59-1.51,8.64a77.05,77.05,0,0,1-1,8c-.62,3.62-1.26,7.36-2,11.19-.34,1.9-.61,3.84-1,5.79s-.84,3.93-1.27,5.91c-.84,3.93-1.67,8-2.57,12.1-.19,1-.43,2.07-.66,3.08s-.51,2.06-.76,3.1c-.55,2-1.08,4.13-1.65,6.21-1,3.66-1.67,5.68-1.39,4Z"/></svg>